<svg height="767.78379" viewBox="0 0 859.39917 767.78379" width="859.39917" xmlns="http://www.w3.org/2000/svg" xmlns:xlink="http://www.w3.org/1999/xlink"><linearGradient id="a" gradientUnits="userSpaceOnUse" x1="344.9209" x2="505.39917" y1="369.39721" y2="369.39721"><stop offset="0" stop-color="#808080" stop-opacity=".25"/><stop offset=".53514" stop-color="#808080" stop-opacity=".12"/><stop offset="1" stop-color="#808080" stop-opacity=".1"/></linearGradient><path d="m601.69959 76.85442-269.70206 165.97049s0 342.31415 269.70206 529.031c269.70205-186.7168 269.70205-529.031 269.70205-529.031z" fill="#3f3d56" transform="translate(-170.30041 -66.10811)"/><path d="m603.30988 76.85442-4.61029 2.83711v688.92673c1.531 1.08244 3.06152 2.16537 4.61029 3.2376 269.70205-186.7168 269.70205-529.031 269.70205-529.031z" fill="#4578ad" opacity=".04" transform="translate(-170.30041 -66.10811)"/><path d="m366.106 347.068 50.843 46.606 63.028-90.924 25.422 21.185-88.45 112.109-72.028-80.502z" fill="url(#a)" opacity=".7"/><path d="m378.106 349.868 41.243 37.806 58.428-85.924 20.622 17.185-79.05 103.109-58.428-65.302z" fill="#3ad29f"/><path d="m335.59008 114.06442a3.67459 3.67459 0 0 1 -2.04748-4.441 1.766 1.766 0 0 0 .0799-.40754 1.84257 1.84257 0 0 0 -3.31045-1.22119 1.7661 1.7661 0 0 0 -.2039.3618 3.67461 3.67461 0 0 1 -4.441 2.04749 1.766 1.766 0 0 0 -.40754-.07991 1.84257 1.84257 0 0 0 -1.22119 3.31045 1.76564 1.76564 0 0 0 .3618.2039 3.67459 3.67459 0 0 1 2.04748 4.441 1.76611 1.76611 0 0 0 -.0799.40755 1.84257 1.84257 0 0 0 3.31045 1.22119 1.76637 1.76637 0 0 0 .2039-.3618 3.67459 3.67459 0 0 1 4.441-2.04749 1.766 1.766 0 0 0 .40754.0799 1.84257 1.84257 0 0 0 1.22119-3.31044 1.7661 1.7661 0 0 0 -.3618-.20391z" fill="#4d8af0" opacity=".5" transform="translate(-170.30041 -66.10811)"/><path d="m189.59008 439.06442a3.67459 3.67459 0 0 1 -2.04748-4.441 1.766 1.766 0 0 0 .0799-.40754 1.84257 1.84257 0 0 0 -3.31045-1.22119 1.7661 1.7661 0 0 0 -.2039.3618 3.67461 3.67461 0 0 1 -4.441 2.04749 1.766 1.766 0 0 0 -.40754-.07991 1.84257 1.84257 0 0 0 -1.22119 3.31045 1.76564 1.76564 0 0 0 .3618.2039 3.67459 3.67459 0 0 1 2.04748 4.441 1.76611 1.76611 0 0 0 -.0799.40755 1.84257 1.84257 0 0 0 3.31045 1.22119 1.76637 1.76637 0 0 0 .2039-.3618 3.67459 3.67459 0 0 1 4.441-2.04749 1.766 1.766 0 0 0 .40754.0799 1.84257 1.84257 0 0 0 1.22119-3.31044 1.7661 1.7661 0 0 0 -.3618-.20391z" fill="#4d8af0" opacity=".5" transform="translate(-170.30041 -66.10811)"/><circle cx="748.39917" cy="254" fill="#f55f44" opacity=".5" r="6"/><circle cx="121.39917" cy="683" fill="#f55f44" opacity=".5" r="6"/><circle cx="850.39917" cy="485" fill="#f55f44" opacity=".5" r="6"/><path d="m874.59008 143.06442a3.67459 3.67459 0 0 1 -2.04748-4.441 1.766 1.766 0 0 0 .0799-.40754 1.84257 1.84257 0 0 0 -3.31045-1.22119 1.7661 1.7661 0 0 0 -.2039.3618 3.67461 3.67461 0 0 1 -4.441 2.04749 1.766 1.766 0 0 0 -.40754-.07991 1.84257 1.84257 0 0 0 -1.22119 3.31045 1.76564 1.76564 0 0 0 .3618.2039 3.67459 3.67459 0 0 1 2.04748 4.441 1.76611 1.76611 0 0 0 -.0799.40755 1.84257 1.84257 0 0 0 3.31045 1.22119 1.76637 1.76637 0 0 0 .2039-.3618 3.67459 3.67459 0 0 1 4.441-2.04749 1.766 1.766 0 0 0 .40754.0799 1.84257 1.84257 0 0 0 1.22119-3.31044 1.7661 1.7661 0 0 0 -.3618-.20391z" fill="#4d8af0" opacity=".5" transform="translate(-170.30041 -66.10811)"/><path d="m974.59008 771.06442a3.67459 3.67459 0 0 1 -2.04748-4.441 1.766 1.766 0 0 0 .0799-.40754 1.84257 1.84257 0 0 0 -3.31045-1.22119 1.7661 1.7661 0 0 0 -.2039.3618 3.67461 3.67461 0 0 1 -4.441 2.04749 1.766 1.766 0 0 0 -.40754-.07991 1.84257 1.84257 0 0 0 -1.22119 3.31045 1.76564 1.76564 0 0 0 .3618.2039 3.67459 3.67459 0 0 1 2.04748 4.441 1.76611 1.76611 0 0 0 -.0799.40755 1.84257 1.84257 0 0 0 3.31045 1.22119 1.76637 1.76637 0 0 0 .2039-.3618 3.67459 3.67459 0 0 1 4.441-2.04749 1.766 1.766 0 0 0 .40754.0799 1.84257 1.84257 0 0 0 1.22119-3.31044 1.7661 1.7661 0 0 0 -.3618-.20391z" fill="#4d8af0" opacity=".5" transform="translate(-170.30041 -66.10811)"/><path d="m182.59008 249.06442a3.67459 3.67459 0 0 1 -2.04748-4.441 1.766 1.766 0 0 0 .0799-.40754 1.84257 1.84257 0 0 0 -3.31045-1.22119 1.7661 1.7661 0 0 0 -.2039.3618 3.67461 3.67461 0 0 1 -4.441 2.04749 1.766 1.766 0 0 0 -.40754-.07991 1.84257 1.84257 0 0 0 -1.22119 3.31045 1.76564 1.76564 0 0 0 .3618.2039 3.67459 3.67459 0 0 1 2.04748 4.441 1.76611 1.76611 0 0 0 -.0799.40755 1.84257 1.84257 0 0 0 3.31045 1.22119 1.76637 1.76637 0 0 0 .2039-.3618 3.67459 3.67459 0 0 1 4.441-2.04749 1.766 1.766 0 0 0 .40754.0799 1.84257 1.84257 0 0 0 1.22119-3.31044 1.7661 1.7661 0 0 0 -.3618-.20391z" fill="#4d8af0" opacity=".5" transform="translate(-170.30041 -66.10811)"/><circle cx="79.39917" cy="284" fill="#47e6b1" opacity=".5" r="6"/><circle cx="853.39917" cy="332" fill="#47e6b1" opacity=".5" r="6"/><g fill="#47e6b1" opacity=".5"><path d="m583.39917 0h3v17h-3z"/><path d="m753.69959 66.10811h3v17h-3z" transform="matrix(0 1 -1 0 659.50728 -746.69959)"/></g><g fill="#47e6b1" opacity=".5"><path d="m594.39917 666h3v17h-3z"/><path d="m764.69959 732.10811h3v17h-3z" transform="matrix(0 1 -1 0 1336.50728 -91.69959)"/></g><g fill="#47e6b1" opacity=".5"><path d="m26.39917 702h3v17h-3z"/><path d="m196.69959 768.10811h3v17h-3z" transform="matrix(0 1 -1 0 804.50728 512.30041)"/></g><g fill="#47e6b1" opacity=".5"><path d="m709.39917 396h3v17h-3z"/><path d="m879.69959 462.10811h3v17h-3z" transform="matrix(0 1 -1 0 1181.50728 -476.69959)"/></g><path d="m795.606 123.018 6.443 5.906 9.128-13.424 3.222 2.685-12.35 16.109-9.128-10.202z" fill="#47e6b1" opacity=".5"/><path d="m760.28981 305.80003h22.24232v28.59727h-22.24232z" fill="#4578ad" transform="matrix(.99924898 -.038749 .038749 .99924898 -182.12458 -35.97628)"/><g transform="translate(-170.30041 -66.10811)"><path d="m681.71009 405.45856s-30.779-14.70576-30.28646-2.00541 31.02521 21.05594 31.02521 21.05594z" fill="#ffb9b9"/><path d="m698.59666 512.91906s-14.52107 35.54159-19.88626 61.18854-13.53608 60.94229-3.02582 85.97362 40.39191 98.59935 40.69972 106.53707-2.55946 15.99856 3.79071 15.75231 40.90677-11.12587 42.30963-15.95007-11.79-17.03205-11.79-17.03205l-32.57731-102.08224 33.98947-66.50524 24.51648 99.215 4.80184 123.82844s23.56691-7.27361 26.98824-1.04656c0 0 10.55875-14.71883 11.9-21.13057s-4.98653-128.59106-4.98653-128.59106 21.63236-139.16288 4.16937-138.4857-85.86352-41.18847-120.89954-1.67149z" fill="#4578ad"/><path d="m719.92877 776.02043s-16.10862 35.60315-17.63461 37.25225-12.02317 17.95548-4.08545 17.64767 26.68044-8.98427 40.47584-22.23868 31.98406-36.21877 30.335-37.74475-12.9466-5.85768-12.9466-5.85768z" fill="#575a89"/><path d="m784.29239 795.78356s-.97192 15.937-3.90076 22.4103-2.55947 15.99857 5.37825 15.69076 28.45267-4.28321 28.45267-4.28321 1.21817-9.58682-.43093-11.11281-8.67647-18.74271-5.68607-23.62847-23.81316.92343-23.81316.92343z" fill="#575a89"/><path d="m796.03561 278.60052s16.922 26.37263 23.51842 32.47656-11.9616 19.543-11.9616 19.543l-33.2153 4.46789s.41786-30.22489-1.29281-33.33842 22.95129-23.14903 22.95129-23.14903z" fill="#ffb9b9"/><path d="m767.16508 313.10863s6.84267 12.4541 13.19285 12.20785 39.1961-14.2394 40.599-19.06359 10.87963 34.55659 10.87963 34.55659l-80.37156 141.44068-19.60455-13.54916 9.49913-83.04479 7.80153-44.8206z" fill="#4578ad"/><path d="m823.92139 439.69215c-3.206 6.70666-5.20835 13.70047-4.9307 20.86031.01231.31753.02462.635.05282.95187.76057 14.69329 6.17341 31.68646 8.11534 44.04443 1.40908 8.86485 1.00808 15.33551-4.1797 16.85636-12.57723 3.66758 1.83379 6.28861-46.826 22.48493s-57.15159 2.21623-57.27471-.95886 6.89116-27.29605 5.24206-28.822-23.07442 19.974-29.54772 17.04512-.73874-19.05053-.73874-19.05053 14.58264-33.954 14.27483-41.89176 22.08942-45.37466 22.08942-45.37466l15.23371-99.16651s5.85768-12.9466 13.73384-14.842 14.411 2.621 14.411 2.621l-13.17984 29.12992-13.90546 51.417 2.32629 18.989s16.17018-34.01561 26.7905-47.1469 33.26379-44.21805 33.26379-44.21805 5.28646-17.83738 1.2957-23.16791c-3.99136-5.34632 16.64671-6.14662 25.4463 15.77118 4.66382 11.61641 12.23581 28.93925 16.97922 45.068 4.22682 14.28851 6.22343 27.646 2.03588 35.2811-6.40022 11.66391-22.50002 26.99509-30.70783 44.11896z" fill="#575a89"/><path d="m854.62926 395.57321c-6.40029 11.66389-22.50006 26.99507-30.70787 44.11894-2.14378-7.72348-4.75909-15.71476-4.75909-15.71476s-10.03082-53.66869 19.64-67.53872a19.85766 19.85766 0 0 1 13.79106 3.85344c4.22684 14.28851 6.22345 27.64602 2.0359 35.2811z" opacity=".1"/><path d="m736.8432 392.19108-25.15446 7.33517-34.926 1.35437-3.593 30.348 57.39783 4.13394s14.33643-40.3042 6.27563-43.17148z" fill="#575a89"/><path d="m777.861 494.23066s-33.65163 5.58313-25.971 15.70981 37.49194-.5198 37.49194-.5198z" fill="#ffb9b9"/><path d="m819.04351 461.50433c.76057 14.69329 6.17341 31.68646 8.11534 44.04443-10.72016 10.14608-20.91438 19.09523-24.75621 19.24421-7.93772.30781-20.69963-.78724-25.4007.985s-7.4583-28.32954-7.4583-28.32954 2.80572-9.64843 15.32136-14.90353c8.44783-3.5552 24.641-13.19802 34.17851-21.04057z" opacity=".1"/><path d="m838.43294 346.91341s26.86513-4.22164 25.41378 40.35271 2.83185 73.027-7.97315 81.39568-45.90258 46.29809-53.8403 46.6059-20.69964-.78723-25.40071.985-7.45829-28.32955-7.45829-28.32955 2.80572-9.64839 15.32138-14.90351 42.00182-23.8878 41.75558-30.238-7.4583-28.32954-7.4583-28.32954-10.03083-53.66866 19.64001-67.53869z" fill="#575a89"/></g><circle cx="602.04517" cy="216.59094" fill="#ffb9b9" r="34.95222"/><path d="m748.81137 232.60234a6.749 6.749 0 0 1 -2.93882 1.47479 2.09717 2.09717 0 0 1 -2.43029-1.68345c-.79968 1.65841-1.70192 3.42592-3.33461 4.27688s-4.15732.13741-4.39266-1.68864a7.706 7.706 0 0 1 -1.77364 3.74392c-1.013.96584-2.85 1.20961-3.73439.12482.715 3.90745.27369 7.92586.49823 11.89184s1.2821 8.1705 4.27847 10.7784c4.36987 3.80334 10.94108 2.86467 16.68929 2.1441a5.06575 5.06575 0 0 1 2.61539.14308c2.15231.917 2.05467 3.9131 2.08369 6.25242a17.37277 17.37277 0 0 0 15.21221 16.4975 8.70861 8.70861 0 0 0 6.47244-1.57965c1.63206-1.38335 2.46572-3.638 4.33585-4.67723 3.04207-1.6904 6.73153.77486 8.95568 3.45157s4.4162 5.96934 7.86172 6.45932c4.55691.648 8.02766-3.996 9.73047-8.27217a48.223 48.223 0 0 0 -.95837-37.46977c-9.51494-20.74107-42.01821-24.02168-59.17066-11.86773z" fill="#2f2e41" transform="translate(-170.30041 -66.10811)"/></svg>