<svg height="646.21974" viewBox="0 0 932.37538 646.21974" width="932.37538" xmlns="http://www.w3.org/2000/svg" xmlns:xlink="http://www.w3.org/1999/xlink"><linearGradient id="a" gradientUnits="userSpaceOnUse" x1="401.19868" x2="401.19868" y1="238.81186" y2="191.49163"><stop offset="0" stop-color="#808080" stop-opacity=".25"/><stop offset=".53514" stop-color="#808080" stop-opacity=".12"/><stop offset="1" stop-color="#808080" stop-opacity=".1"/></linearGradient><linearGradient id="b" x1="548.19868" x2="548.19868" xlink:href="#a" y1="175.41336" y2="144.89013"/><linearGradient id="c" x1="819.19868" x2="819.19868" xlink:href="#a" y1="155.41336" y2="124.89013"/><linearGradient id="d" x1="138.37538" x2="138.37538" xlink:href="#a" y1="143.68325" y2="9.68325"/><path d="m172.18769 163.10987h11v147h-11z" fill="#4578ad" stroke="#4578ad" stroke-miterlimit="10"/><path d="m407.42024 265.80813h109.26778v66.19873h-109.26778z" fill="#f55f44"/><path d="m516.68802 265.80813h109.26778v66.19873h-109.26778z" fill="#4d8af0"/><path d="m625.95581 265.80813h109.26778v66.19873h-109.26778z" fill="#3ad29f"/><path d="m406.62266 332.00686h109.26778v66.19873h-109.26778z" fill="#4d8af0"/><path d="m298.15245 332.00686h109.26778v66.19873h-109.26778z" fill="#f55f44"/><path d="m516.68802 332.00686h109.26778v66.19873h-109.26778z" fill="#3ad29f"/><path d="m625.95581 332.00686h109.26778v66.19873h-109.26778z" fill="#fdd835"/><g opacity=".1"><path d="m426.96083 265.40934h14.35635v66.19873h-14.35635z"/><path d="m454.87595 265.40934h14.35635v66.19873h-14.35635z"/><path d="m482.79108 265.40934h14.35635v66.19873h-14.35635z"/></g><g opacity=".1"><path d="m536.22861 265.40934h14.35635v66.19873h-14.35635z"/><path d="m564.14374 265.40934h14.35635v66.19873h-14.35635z"/><path d="m592.05887 265.40934h14.35635v66.19873h-14.35635z"/></g><g opacity=".1"><path d="m645.49639 265.40934h14.35635v66.19873h-14.35635z"/><path d="m673.41152 265.40934h14.35635v66.19873h-14.35635z"/><path d="m701.32665 265.40934h14.35635v66.19873h-14.35635z"/></g><g opacity=".1"><path d="m426.96083 331.60807h14.35635v66.19873h-14.35635z"/><path d="m454.87595 331.60807h14.35635v66.19873h-14.35635z"/><path d="m482.79108 331.60807h14.35635v66.19873h-14.35635z"/></g><g opacity=".1"><path d="m317.69304 331.60807h14.35635v66.19873h-14.35635z"/><path d="m345.60817 331.60807h14.35635v66.19873h-14.35635z"/><path d="m373.5233 331.60807h14.35635v66.19873h-14.35635z"/></g><g opacity=".1"><path d="m536.22861 331.60807h14.35635v66.19873h-14.35635z"/><path d="m564.14374 331.60807h14.35635v66.19873h-14.35635z"/><path d="m592.05887 331.60807h14.35635v66.19873h-14.35635z"/></g><g opacity=".1"><path d="m645.49639 331.60807h14.35635v66.19873h-14.35635z"/><path d="m673.41152 331.60807h14.35635v66.19873h-14.35635z"/><path d="m701.32665 331.60807h14.35635v66.19873h-14.35635z"/></g><path d="m21.68769 475.60987h846v26h-846z" fill="#4578ad" stroke="#4578ad" stroke-miterlimit="10"/><path d="m927.5 497.5h-498a12.0353 12.0353 0 0 1 -12-12v-73.324l-194-21.676v223h716v-128a12.03523 12.03523 0 0 1 -12 12z" fill="#4578ad" stroke="#4578ad" stroke-miterlimit="10" transform="translate(-136.81231 -124.89013)"/><path d="m86.68769 289.60987h73v42h-73z" fill="#fff"/><circle cx="177.68769" cy="162.60987" fill="#4578ad" r="21" stroke="#4578ad" stroke-miterlimit="10"/><g transform="translate(-136.81231 -124.89013)"><path d="m232.42919 621.629c7.43621-20.076 30.81892-30.532 52.21146-29.69484s41.31818 10.502 60.49411 20.0218 39.03219 19.27834 60.41542 20.32683c47.519 2.33 87.50948-38.12583 134.86347-42.71717 56.29339-5.4581 106.2505 40.38484 162.77635 42.27305 9.94081.33207 20.07934-.76708 29.23352-4.65693 7.96792-3.38576 14.9115-8.7506 22.437-13.03062 37.97935-21.60035 85.48272-13.44466 127.50129-1.46776s85.63709 27.32039 128.34948 18.11942" fill="#4d8af0"/><path d="m136.81231 660.34986c7.43621-20.076 30.81892-30.532 52.21146-29.69484s41.31818 10.502 60.49411 20.02179 39.03219 19.27835 60.41543 20.32683c47.519 2.33 87.50947-38.12583 134.86346-42.71717 56.2934-5.45809 106.2505 40.38484 162.77636 42.27306 9.9408.33207 20.07933-.76709 29.23352-4.65693 7.96791-3.38577 14.91149-8.75061 22.437-13.03063 37.97935-21.60035 85.48272-13.44466 127.50129-1.46776s85.63706 27.32039 128.34943 18.11942" fill="#4d8af0"/><path d="m238.751 710.13385c7.43621-20.076 30.81891-30.532 52.21146-29.69484s41.31818 10.502 60.4941 20.0218 39.0322 19.27834 60.41543 20.32683c47.519 2.33 87.50948-38.12583 134.86346-42.71717 56.2934-5.4581 106.25051 40.38483 162.77636 42.27305 9.94081.33207 20.07934-.76708 29.23352-4.65693 7.96792-3.38577 14.9115-8.7506 22.43695-13.03063 37.97936-21.60034 85.48272-13.44466 127.50129-1.46775s85.6371 27.32039 128.34949 18.11941" fill="#4d8af0"/><path d="m290.90563 759.12762c7.43621-20.076 30.81891-30.532 52.21146-29.69484s41.31818 10.502 60.4941 20.0218 39.0322 19.27834 60.41543 20.32683c47.519 2.33 87.50948-38.12583 134.86346-42.71717 56.2934-5.45809 106.25051 40.38484 162.77636 42.27305 9.94081.33207 20.07934-.76708 29.23352-4.65692 7.96792-3.38577 14.9115-8.75061 22.437-13.03063 37.97935-21.60035 85.48271-13.44466 127.50128-1.46776s85.6371 27.32039 128.34949 18.11942" fill="#4d8af0"/><path d="m399.7606 238.81186-6.89476-1.22015a44.53063 44.53063 0 0 1 .83228-5.06968c1.17046-14.78118-9.07915-30.33524-23.48846-34.25788l1.84394-6.77252c13.12918 3.57419 23.25482 14.56125 27.09635 27.35684a48.51881 48.51881 0 0 1 31.64965-22.94808l1.38809 6.88105c-15.1045 3.04638-27.94292 15.88994-31.53368 30.85849a35.46861 35.46861 0 0 1 -.89341 5.17193z" fill="url(#a)" opacity=".5"/><path d="m399.96943 235.37611-5.89356-1.043a38.06323 38.06323 0 0 1 .71143-4.3335c1.00049-12.63476-7.76074-25.93017-20.07764-29.2832l1.57617-5.78906c11.22266 3.05517 19.87793 12.44677 23.16163 23.38427a41.47322 41.47322 0 0 1 27.05371-19.61572l1.18652 5.88184c-12.91113 2.604-23.88525 13.58252-26.95459 26.37744a30.31677 30.31677 0 0 1 -.76367 4.42093z" fill="#706a6a"/><path d="m547.27107 175.41336-4.44737-.787a28.726 28.726 0 0 1 .53685-3.27013c.755-9.53438-5.85637-19.5673-15.15089-22.09755l1.18941-4.36851c8.46878 2.30548 15.00018 9.39253 17.47811 17.64613a31.29632 31.29632 0 0 1 20.41514-14.80232l.89537 4.43852c-9.74294 1.965-18.02418 10.24958-20.34034 19.90482a22.87807 22.87807 0 0 1 -.57628 3.33604z" fill="url(#b)" opacity=".5"/><path d="m818.27107 155.41336-4.44737-.787a28.726 28.726 0 0 1 .53685-3.27013c.755-9.53438-5.85637-19.5673-15.15089-22.09755l1.18941-4.36851c8.46878 2.30548 15.00018 9.39253 17.47811 17.64613a31.29632 31.29632 0 0 1 20.41514-14.80232l.89537 4.43852c-9.74294 1.965-18.02418 10.24958-20.34034 19.90482a22.87807 22.87807 0 0 1 -.57628 3.33604z" fill="url(#c)" opacity=".5"/><path d="m547.59591 170.06886-2.88993-.51143a18.66413 18.66413 0 0 1 .34885-2.125c.49059-6.19552-3.80552-12.715-9.84517-14.35916l.77289-2.83869a16.85575 16.85575 0 0 1 11.35745 11.46664 20.33658 20.33658 0 0 1 13.26591-9.61866l.58182 2.88418a17.71236 17.71236 0 0 0 -13.21731 12.93431 14.86648 14.86648 0 0 1 -.37451 2.16781z" fill="#706a6a"/><path d="m818.59591 150.06886-2.88993-.51143a18.66413 18.66413 0 0 1 .34885-2.125c.49059-6.19552-3.80552-12.715-9.84517-14.35916l.77289-2.83869a16.85575 16.85575 0 0 1 11.35745 11.46664 20.33658 20.33658 0 0 1 13.26591-9.61866l.58182 2.88418a17.71236 17.71236 0 0 0 -13.21731 12.93431 14.86648 14.86648 0 0 1 -.37451 2.16781z" fill="#706a6a"/></g><circle cx="138.37538" cy="76.68325" fill="url(#d)" opacity=".5" r="67"/><circle cx="138.37538" cy="76.68325" fill="#fdd835" r="62"/></svg>