<svg height="818.06726" viewBox="0 0 963.15507 818.06726" width="963.15507" xmlns="http://www.w3.org/2000/svg"><circle cx="871.42395" cy="478.58747" fill="#f2f2f2" r="56.89068"/><circle cx="611.83388" cy="478.58747" fill="#f2f2f2" r="56.89068"/><path d="m531.34411 23.04063h139.0661v165.19368h-139.0661z" fill="#f2f2f2"/><g fill="#3f3d56"><path d="m824.516 230.328h-175.87689v-189.36163h175.87689zm-173.622-2.25487h171.36706v-184.85186h-171.36706z" transform="translate(-118.42246 -40.96637)"/><path d="m824.516 602.857h-175.87689v-189.36222h175.87689zm-173.622-2.2549h171.36706v-184.85242h-171.36706z" transform="translate(-118.42246 -40.96637)"/><path d="m567.45438 602.857h-175.87684v-189.36222h175.87684zm-173.62194-2.2549h171.367v-184.85242h-171.367z" transform="translate(-118.42246 -40.96637)"/><path d="m1081.57754 602.857h-175.87685v-189.36222h175.87685zm-173.62195-2.2549h171.367v-184.85242h-171.367z" transform="translate(-118.42246 -40.96637)"/><path d="m617.02762 188.23422h2.2549v185.42165h-2.2549z"/><path d="m876.345 373.656h-2.255v-103.383h-511.869v103.383h-2.255v-105.638h516.379z"/><path d="m531.3441 75.50233h115.46684v2.2549h-115.46684z"/><path d="m531.3441 106.19564h115.46684v2.2549h-115.46684z"/><path d="m531.3441 136.88895h115.46684v2.2549h-115.46684z"/><path d="m27.39897 809.69336h457.54639v2h-457.54639z"/></g><circle cx="361.09348" cy="467.20934" fill="#4578ad" r="68.26881"/><path d="m404.078 460.467h-36.242v-36.242h-13.485v36.242h-36.242v13.485h36.242v36.241h13.485v-36.241h36.242z" fill="#fff"/><path d="m736.57754 577.57193a69.396 69.396 0 1 1 69.396-69.39659 69.47515 69.47515 0 0 1 -69.396 69.39659zm0-136.53718a67.14114 67.14114 0 1 0 67.14113 67.14059 67.21708 67.21708 0 0 0 -67.14113-67.14059z" fill="#3f3d56" transform="translate(-118.42246 -40.96637)"/><path d="m780.68906 516.04547h-88.22306v-15.74027h88.223zm-85.96814-2.2549h83.71323v-11.23047h-83.71323z" fill="#3f3d56" transform="translate(-118.42246 -40.96637)"/><path d="m993.63966 577.57193a69.396 69.396 0 1 1 69.39549-69.39659 69.47562 69.47562 0 0 1 -69.39549 69.39659zm0-136.53718a67.14114 67.14114 0 1 0 67.14059 67.14059 67.21755 67.21755 0 0 0 -67.14059-67.14059z" fill="#3f3d56" transform="translate(-118.42246 -40.96637)"/><path d="m1011.05349 528.0863v-12.04083h-58.15511v-15.74027h58.15511v-12.15092l23.96054 20.69158zm-55.9002-14.29573h58.15511v9.59214l18.18235-14.60071-18.18235-15.70173v9.47983h-58.15511z" fill="#3f3d56" transform="translate(-118.42246 -40.96637)"/><path d="m406.57754 445.91144s24 50 8 52-20-45-20-45z" fill="#ffb9b9" transform="translate(-118.42246 -40.96637)"/><path d="m197.155 724.945 16 28.354-29 18.146-6.925-33.48z" fill="#ffb9b9"/><path d="m322.41 798.20446s8.78528-14.3034 11.96282-11.90905 16.28376 12.7684 16.28376 12.7684l17.07143 16.351s57.67689 6.0979 21.02767 26.30654-56.90268 3.45265-56.90268 3.45265-51.33078 2.66945-50.50279-11.65187 17.38252-36.97834 17.38252-36.97834 20.86439 13.98821 23.67727 1.66067z" fill="#2f2e41" transform="translate(-118.42246 -40.96637)"/><path d="m322.41 798.20446s8.78528-14.3034 11.96282-11.90905 16.28376 12.7684 16.28376 12.7684l17.07143 16.351s57.67689 6.0979 21.02767 26.30654-56.90268 3.45265-56.90268 3.45265-51.33078 2.66945-50.50279-11.65187 17.38252-36.97834 17.38252-36.97834 20.86439 13.98821 23.67727 1.66067z" opacity=".1" transform="translate(-118.42246 -40.96637)"/><path d="m244.57754 445.41144 15 181.5s.5 108.5 16.5 129.5 16.5 31.5 16.5 31.5l33-17s-11-1-6-8 20 0 6-10-17-10.3271-13.5-14.66355a24.16973 24.16973 0 0 0 4.5-9.33645l-9-112 17-195z" fill="#2f2e41" transform="translate(-118.42246 -40.96637)"/><path d="m244.57754 445.41144 15 181.5s.5 108.5 16.5 129.5 16.5 31.5 16.5 31.5l33-17s-11-1-6-8 20 0 6-10-17-10.3271-13.5-14.66355a24.16973 24.16973 0 0 0 4.5-9.33645l-9-112 17-195z" opacity=".1" transform="translate(-118.42246 -40.96637)"/><path d="m167.155 724.945-14 37-40-15 25-26z" fill="#ffb9b9"/><path d="m265.715 787.00488s14.94647-9.34154 16.81478-5.60493 9.34154 19.61724 9.34154 19.61724l8.40738 23.35385s51.37847 32.69539 7.47323 34.56369-55.11508-23.35384-55.11508-23.35384-49.51012-21.48555-42.03685-34.5637 33.62954-26.64207 33.62954-26.64207 13.07812 22.90545 21.48546 12.62976z" fill="#2f2e41" transform="translate(-118.42246 -40.96637)"/><path d="m371.57754 445.91144 8 167s-39 111-73 129c0 0 0 22-8 26a20.08371 20.08371 0 0 0 -10 12l-44-11s11-11 7-16 13-16 13-16l44-107s7-3 9-13 6-10-4-12-10-12-10-12l-33-152z" fill="#2f2e41" transform="translate(-118.42246 -40.96637)"/><circle cx="217.15507" cy="102.94507" fill="#ffb9b9" r="40"/><path d="m300.07754 146.41144s-3 51-7 56 42 4 42 4-3-43 0-47-35-13-35-13z" fill="#ffb9b9" transform="translate(-118.42246 -40.96637)"/><path d="m286.57754 186.91144s38-4 52 8a102.89363 102.89363 0 0 0 14.32151 10.24547 29.37377 29.37377 0 0 1 14.25206 24.32024l7.42643 227.43429s-113-10-134 0c0 0-1-23-3-26-1.458-2.187-3.97893-89.406-5.23816-136.51706-.71062-26.58611 8.42653-52.66544 26.25528-72.40022 6.061-6.709 12.83288-12.33272 19.98288-15.08272 0 0-2-19 8-20z" fill="#575a89" transform="translate(-118.42246 -40.96637)"/><path d="m347.57754 206.91144a29.53792 29.53792 0 0 1 21.73346 24.45578l14.26655 101.54422 20 81s10 9 6 14 5 26 5 26l-25 8s-3-21-8-22c-4.39412-.87882-53.58348-132.28169-65.4401-164.11454-1.63484-4.38924-2.5599-6.88546-2.5599-6.88546s1.99999-67 33.99999-62z" fill="#575a89" transform="translate(-118.42246 -40.96637)"/><path d="m314.07754 268.41144 60.5 163.66929s-58.5-110.66929-60.5-163.66929z" opacity=".1" transform="translate(-118.42246 -40.96637)"/><path d="m314.68088 155.698c3.38281-.20184 6.68589.94138 10.04523 1.38738 12.01878 1.59566 24.522-7.12574 27.17572-18.956a14.54469 14.54469 0 0 1 1.38995-4.52877c1.84974-3.02 6.06244-3.59582 9.53519-2.90138s6.7646 2.31978 10.30124 2.50534c5.46064.28652 10.70312-3.07527 13.61328-7.7047s3.73416-10.32591 3.34129-15.77992l-2.61779 2.74748a13.29645 13.29645 0 0 1 -1.18532-7.22646 8.38568 8.38568 0 0 0 -7.943 2.03245c-2.30828.24566-.56616-4.28146-2.281-5.846-.71809-.65512-1.819-.53152-2.791-.52215-4.91058.04735-8.883-3.70861-12.75264-6.73218a54.19082 54.19082 0 0 0 -22.88765-10.43995c-5.545-1.08153-11.4414-1.25533-16.70007.80949-4.31867 1.69572-7.93346 4.7842-11.27782 8-8.23294 7.91654-15.52333 17.21819-18.94841 28.11415a47.32783 47.32783 0 0 0 -.22667 27.44357c1.38012 4.65808 5.53945 20.61076 11.62861 20.98227 7.65112.46684 3.05742-12.81643 12.58086-13.38462z" fill="#2f2e41" transform="translate(-118.42246 -40.96637)"/><path d="m189.985 851.33711-1.07325-.40234c-.23584-.08887-23.70849-9.082-34.7041-29.47364-10.99609-20.39257-5.61182-44.94531-5.55615-45.19043l.25342-1.11816 1.07275.40234c.23584.08887 23.708 9.082 34.7041 29.47364 10.9961 20.39258 5.61182 44.94531 5.55615 45.19043zm-34.01661-30.82519c9.29639 17.24121 27.84522 26.0791 32.54493 28.09668.89355-5.03711 3.6958-25.40625-5.59229-42.63086-9.28711-17.22266-27.84326-26.07422-32.54492-28.09668-.89411 5.04004-3.69533 25.40722 5.59226 42.63086z" fill="#3f3d56" transform="translate(-118.42246 -40.96637)"/><path d="m162.61082 814.30809c19.76057 11.88861 27.371 35.50266 27.371 35.50266s-24.42779 4.33882-44.18836-7.5498-27.371-35.50266-27.371-35.50266 24.42779-4.33881 44.18836 7.5498z" fill="#4578ad" transform="translate(-118.42246 -40.96637)"/></svg>