<svg height="710.80704" viewBox="0 0 888 710.80704" width="888" xmlns="http://www.w3.org/2000/svg"><path d="m600.93555 699.40352a260.06372 260.06372 0 1 1 183.89355-76.1709 258.36518 258.36518 0 0 1 -183.89355 76.1709zm0-518.12891c-142.29688 0-258.06446 115.76758-258.06446 258.06494s115.76758 258.064 258.06446 258.064 258.06445-115.76663 258.06445-258.064-115.76758-258.06494-258.06445-258.06494z" fill="#ccc" transform="translate(-156 -94.59648)"/><path d="m469 509.90391h262v195h-262z" fill="#2f2e41" transform="matrix(0 1 -1 0 1051.40391 -87.19257)"/><path d="m313 373.80743h262v104h-262z" fill="#3f3d56"/><path d="m313 489.80743h262v104h-262z" fill="#3f3d56"/><path d="m313 605.80743h262v104h-262z" fill="#3f3d56"/><g fill="#4578ad"><path d="m313 417.90372h262v16h-262z"/><path d="m313 533.90372h262v16h-262z"/><path d="m313 649.90372h262v16h-262z"/><circle cx="524" cy="388.80743" r="6"/><circle cx="545" cy="388.80743" r="6"/><circle cx="566" cy="388.80743" r="6"/><circle cx="524" cy="502.80743" r="6"/><circle cx="545" cy="502.80743" r="6"/><circle cx="566" cy="502.80743" r="6"/><circle cx="524" cy="616.80743" r="6"/><circle cx="545" cy="616.80743" r="6"/><circle cx="566" cy="616.80743" r="6"/></g><path d="m0 708.80704h888v2h-888z" fill="#3f3d56"/><path d="m397.8787 365.66116v185.9917a14.67525 14.67525 0 0 1 -14.67227 14.67231h-72.27843a14.67656 14.67656 0 0 1 -14.6784-14.67231v-185.9917a14.67655 14.67655 0 0 1 14.6784-14.67228h8.76786a6.9778 6.9778 0 0 0 6.4551 9.60614h41.20843a6.97774 6.97774 0 0 0 6.45506-9.60614h9.392a14.67524 14.67524 0 0 1 14.67225 14.67228z" fill="#e6e6e6" transform="translate(-156 -94.59648)"/><path d="m145.06414 291.91002h92v128h-92z" fill="#fff"/><path d="m171.18557 379.92719h36.71978v2.09827h-36.71978z" fill="#e6e6e6"/><path d="m171.14869 387.63152h56.81724v2.09827h-56.81724z" fill="#4578ad"/><path d="m171.14869 394.89011h44.5883v2.09827h-44.5883z" fill="#e6e6e6"/><path d="m171.14869 402.1487h26.22841v2.09827h-26.22841z" fill="#e6e6e6"/><path d="m171.14869 409.40729h39.34262v2.09827h-39.34262z" fill="#e6e6e6"/><path d="m154.53324 379.32379h4.19655v4.19655h-4.19655z" fill="#e6e6e6"/><path d="m154.53324 386.58238h4.19655v4.19655h-4.19655z" fill="#4578ad"/><path d="m154.53324 393.84097h4.19655v4.19655h-4.19655z" fill="#e6e6e6"/><path d="m154.53324 401.09956h4.19655v4.19655h-4.19655z" fill="#e6e6e6"/><path d="m154.53324 408.35815h4.19655v4.19655h-4.19655z" fill="#e6e6e6"/><path d="m172.75082 307.91002h36.99753v36.99753h-36.99753z" fill="#e6e6e6"/><path d="m321.11058.13939h245.88383v157.47494h-245.88383z" fill="#e6e6e6"/><path d="m339.64671 44.19534h203.86136v77.03517h-203.86136z" fill="#fff"/><path d="m376.78939 57.54179h48.92684v2.79582h-48.92684z" fill="#e6e6e6"/><path d="m376.74025 67.80733h75.70547v2.79582h-75.70547z" fill="#4578ad"/><path d="m376.74025 77.47895h59.41117v2.79582h-59.41117z" fill="#e6e6e6"/><path d="m376.74025 87.15058h34.94775v2.79582h-34.94775z" fill="#e6e6e6"/><path d="m376.74025 96.8222h52.42162v2.79582h-52.42162z" fill="#e6e6e6"/><path d="m354.60119 56.7378h5.59164v5.59164h-5.59164z" fill="#e6e6e6"/><path d="m354.60119 66.40942h5.59164v5.59164h-5.59164z" fill="#4578ad"/><path d="m354.60119 76.08104h5.59164v5.59164h-5.59164z" fill="#e6e6e6"/><path d="m354.60119 85.75267h5.59164v5.59164h-5.59164z" fill="#e6e6e6"/><path d="m354.60119 95.42429h5.59164v5.59164h-5.59164z" fill="#e6e6e6"/><path d="m483.44507 53.8475h50.05873v50.05873h-50.05873z" fill="#e6e6e6"/><path d="m321.00559 0h245.88383v10.44604h-245.88383z" fill="#4578ad"/><circle cx="328.76825" cy="5.34057" fill="#fff" r="2.09686"/><circle cx="336.11718" cy="5.34057" fill="#fff" r="2.09686"/><circle cx="343.46611" cy="5.34057" fill="#fff" r="2.09686"/><path d="m671.64772 294.80743h60v31h-60z" fill="#e6e6e6"/><path d="m671.64772 405.80743h60v31h-60z" fill="#e6e6e6"/><circle cx="701.64772" cy="365.80743" fill="#e6e6e6" r="50"/><circle cx="701.64772" cy="365.80743" fill="#fff" r="39"/><path d="m688.87659 355.12175h30.24683v1.72839h-30.24683z" fill="#e2e2e2"/><path d="m688.84621 361.46796h46.80151v1.72839h-46.80151z" fill="#4578ad"/><path d="m688.84621 367.44701h36.72829v1.72839h-36.72829z" fill="#e2e2e2"/><path d="m688.84621 373.42605h21.60488v1.72839h-21.60488z" fill="#e2e2e2"/><path d="m688.84621 379.4051h32.40732v1.72839h-32.40732z" fill="#e2e2e2"/><path d="m675.15972 354.62472h3.45678v3.45678h-3.45678z" fill="#e2e2e2"/><path d="m675.15972 360.60376h3.45678v3.45678h-3.45678z" fill="#4578ad"/><path d="m675.15972 366.58281h3.45678v3.45678h-3.45678z" fill="#e2e2e2"/><path d="m675.15972 372.56186h3.45678v3.45678h-3.45678z" fill="#e2e2e2"/><path d="m675.15972 378.54091h3.45678v3.45678h-3.45678z" fill="#e2e2e2"/></svg>