<svg height="793" viewBox="0 0 887 793" width="887" xmlns="http://www.w3.org/2000/svg"><ellipse cx="719.91704" cy="768" fill="#e6e6e6" rx="167.08296" ry="25"/><path d="m0 0h886a0 0 0 0 1 0 0v.00073a733.99927 733.99927 0 0 1 -733.99927 733.99927h-152.00073a0 0 0 0 1 0 0v-734a0 0 0 0 1 0 0z" fill="#3f3d56"/><circle cx="652.85898" cy="178.42493" fill="#f2f2f2" r="71.88313"/><circle cx="432.07507" cy="32.60485" fill="#ff6584" r="6.16141"/><circle cx="632.32095" cy="445.41942" fill="#ff6584" r="6.16141"/><circle cx="652.85898" cy="32.60485" fill="#f2f2f2" r="6.16141"/><circle cx="739.11874" cy="329.37951" fill="#f2f2f2" r="6.16141"/><circle cx="493.68919" cy="198.96296" fill="#f2f2f2" r="6.16141"/><circle cx="168.16128" cy="157.88689" fill="#f2f2f2" r="6.16141"/><circle cx="284.2012" cy="413.58546" fill="#4578ad" r="209.48799"/><circle cx="274.95908" cy="328.3526" opacity=".2" r="30.80706"/><circle cx="274.95908" cy="534.75989" opacity=".2" r="53.3989"/><circle cx="119.89689" cy="453.63464" opacity=".2" r="13.34972"/><circle cx="646.60588" cy="141.34643" opacity=".2" r="7.09663"/><circle cx="345.72362" cy="282.03199" opacity=".2" r="7.09663"/><circle cx="265.71696" cy="422.82758" opacity=".2" r="9.24212"/><circle cx="629.33193" cy="198.04609" opacity=".2" r="7.09663"/><circle cx="438.32817" cy="372.61941" opacity=".2" r="7.09663"/><circle cx="692.9265" cy="191.35289" opacity=".2" r="10.25068"/><circle cx="379.72141" cy="444.99766" opacity=".2" r="10.25068"/><circle cx="154.81156" cy="328.3526" opacity=".2" r="13.34972"/><path d="m486.08946 587.8377a586.0229 586.0229 0 0 1 -65.92931-3.80977c-65.831-7.47613-126.5456-25.142-170.95911-49.74257-44.957-24.90237-67.96155-54.06077-64.777-82.104 2.20623-19.42891 20.9853-36.81905 57.40973-53.16223a2.05428 2.05428 0 0 1 1.68175 3.74859c-34.98737 15.69736-52.98122 32.01246-55.00995 49.87695-2.98544 26.28527 19.277 54.0026 62.68614 78.04755 43.95221 24.3458 104.12425 41.83723 169.4318 49.25419 65.308 7.417 127.86934 3.86291 176.16181-10.00628 47.69579-13.69871 75.60666-35.71794 78.59109-62.00321 2.01971-17.78226-7.775-36.63654-28.325-54.52609a2.05423 2.05423 0 0 1 2.69762-3.09876c21.61508 18.81718 31.88812 38.90394 29.709 58.08815-3.185 28.04325-32.14183 51.301-81.53842 65.48706-32.16152 9.2371-70.54899 13.95042-111.83015 13.95042z" fill="#fff" transform="translate(-156.5 -53.5)"/><path d="m651.786 721.101 1.455 13.1-13.099-1.456v-16.011z" fill="#ffb8b8"/><path d="m788.607 721.101-1.456 13.1 13.1-1.456v-16.011z" fill="#ffb8b8"/><path d="m806.83033 492.22552-5.82218 149.921s-18.92206 112.07687-14.55543 114.988 0 18.92207 0 18.92207l24.74424 2.91109s0-11.64435 5.82218-16.011 59.67729-209.5983 59.67729-209.5983l55.31066 197.954s-1.45554 11.64435 2.91109 11.64435 5.82218 16.011 5.82218 16.011h24.74424v-16.011s7.27772-1.45554 2.91109-13.09989-20.37762-257.63125-20.37762-257.63125z" fill="#2f2e41" transform="translate(-156.5 -53.5)"/><path d="m799.55261 774.601s-7.27772-4.36663-10.18881-1.45554-26.19978 32.022-26.19978 32.022-32.022 20.37761-2.91109 26.19979 50.944-21.83316 52.39957-24.74425-1.45554-26.19979-2.91108-23.2887-5.82218 1.45555-7.27772 0-2.91109-8.7333-2.91109-8.7333z" fill="#2f2e41" transform="translate(-156.5 -53.5)"/><path d="m953.84025 774.601s7.27772-4.36663 10.18881-1.45554 26.19978 32.022 26.19978 32.022 32.022 20.37761 2.91109 26.19979-50.944-21.83316-52.39957-24.74425 1.45554-26.19979 2.91108-23.2887 5.82218 1.45555 7.27772 0 2.91109-8.7333 2.91109-8.7333z" fill="#2f2e41" transform="translate(-156.5 -53.5)"/><circle cx="738.39073" cy="193.4664" fill="#ffb8b8" r="29.83865"/><path d="m718.741 210.205-4.367 45.122 34.933 7.278 8.734-53.855z" fill="#ffb8b8"/><g transform="translate(-156.5 -53.5)"><path d="m911.62948 298.6382s-8.73326 18.92207-40.75523-1.45554l-59.67725 195.04286s80.05491 48.03294 130.99894 11.64435l-17.46657-196.49841z" fill="#575a89"/><path d="m876.69643 276.805-27.65533-4.36663-2.9111 18.92211s-37.84414 4.36663-42.21077 18.92207l4.36663 107.71024s-13.09989 23.2887-1.45554 37.84414c0 0-18.92207 39.29968-4.36663 46.5774 0 0 33.4775-16.011 53.85512-11.64435 0 0 11.64435-2.91109 11.64435-11.64435s8.73327-202.32063 8.73327-202.32063z" fill="#2f2e41"/><path d="m910.17394 279.71613 16.011 4.36663 1.45554 20.37761s39.29968 24.74425 40.75523 39.29969-29.11088 84.42153-29.11088 84.42153 11.64435 20.37762 7.27772 33.47751c0 0 18.92207 37.84414 7.27772 48.03295 0 0-21.83316 5.82217-24.74424-2.91109s-29.11088-109.16578-17.46653-157.19873c-.00002 0-11.64437-61.13284-1.45556-69.8661z" fill="#2f2e41"/><path d="m926.91269 327.11839h-.54785v-15.00827a8.68638 8.68638 0 0 0 -8.68641-8.6864h-31.797a8.68638 8.68638 0 0 0 -8.68641 8.6864v82.33656a8.68638 8.68638 0 0 0 8.68641 8.68639h31.797a8.68638 8.68638 0 0 0 8.68641-8.68639v-56.64515h.54785z" fill="#fff"/><path d="m940.74036 385.97083s-11.64436-37.84414-29.11088-26.19983 11.64435 43.66631 11.64435 43.66631z" fill="#ffb8b8"/><path d="m860.68545 358.31549s20.37761-24.74424 30.56642-13.09989-17.46653 37.84414-17.46653 37.84414z" fill="#ffb8b8"/><path d="m808.28587 308.827s-7.27772-1.45555-11.64435 11.64435-20.37761 62.58838-20.37761 71.32164 5.82218 43.66631 37.84414 37.84414 69.8661-46.5774 69.8661-46.5774l-20.37761-30.56642-43.66632 26.19979z" fill="#2f2e41"/></g><path d="m658.075 293.062 6.083 31.403 45.122-26.199-42.211 16.011-9.306-23.089z" opacity=".1"/><path d="m786.424 324.465 5.822 4.367 2.911-20.378z" opacity=".1"/><path d="m807.5581 433.276s42.75331-11.63082 62.85965-37.1096c0 0-20.64888 34.19851-62.85965 37.1096z" opacity=".1" transform="translate(-156.5 -53.5)"/><path d="m915.26834 407.07621s9.00267 44.05947 32.15667 45.31843c-.00001 0-27.79001 8.53669-32.15667-45.31843z" opacity=".1" transform="translate(-156.5 -53.5)"/><path d="m962.57351 337.93788s4.36663 2.91109 7.27772 16.011 21.83316 62.58838 14.55544 74.23273-18.92207 37.84414-43.66631 20.37762l-24.74425-45.12186 24.74425-23.2887 10.1888 7.27772z" fill="#2f2e41" transform="translate(-156.5 -53.5)"/><path d="m866.24555 254.53418s-25.025-40.55779 1.63-42.66723a67.95611 67.95611 0 0 0 25.562-6.96507c8.83551-4.49607 19.95734-7.91352 25.8758-.99239a43.97842 43.97842 0 0 0 8.94648 8.288c5.19893 3.44787 11.2143 9.03721 7.88336 15.03291l-5.46075 9.82934-7.6451 19.6587c1.78034-8.47934 1.82512-15.59877-2.73039-19.11263 0 0-25.41622 10.8161-38.22508-8.73719-14.33867-10.75829-18.90057 23.10403-15.83632 25.66556z" fill="#2f2e41" transform="translate(-156.5 -53.5)"/><circle cx="745.66845" cy="279.34348" fill="#4578ad" r="7.27772"/></svg>