<svg height="814.22" viewBox="0 0 1135.18 814.22" width="1135.18" xmlns="http://www.w3.org/2000/svg" xmlns:xlink="http://www.w3.org/1999/xlink"><linearGradient id="a" gradientUnits="userSpaceOnUse" x1="277.46" x2="277.46" y1="697.11" y2="669.52"><stop offset="0" stop-color="#808080" stop-opacity=".25"/><stop offset=".54" stop-color="#808080" stop-opacity=".12"/><stop offset="1" stop-color="#808080" stop-opacity=".1"/></linearGradient><linearGradient id="b" x1="748.15" x2="748.15" xlink:href="#a" y1="567.16" y2="544.13"/><linearGradient id="c" x1="556.93" x2="556.93" xlink:href="#a" y1="707.16" y2="42.89"/><linearGradient id="d" gradientUnits="userSpaceOnUse" x1="456.95" x2="456.95" y1="628.14" y2="692.54"><stop offset="0" stop-color="#e0e0e0"/><stop offset=".31" stop-color="#fccc63"/><stop offset=".77" stop-color="#f55f44"/></linearGradient><linearGradient id="e" x1="534.05" x2="534.05" xlink:href="#d" y1="628.14" y2="692.54"/><linearGradient id="f" x1="582.35" x2="582.35" xlink:href="#d" y1="628.14" y2="692.54"/><linearGradient id="g" x1="660.3" x2="660.3" xlink:href="#d" y1="628.14" y2="692.54"/><linearGradient id="h" x1="766.05" x2="766.05" xlink:href="#a" y1="409.23" y2="340.57"/><linearGradient id="i" x1="331.05" x2="331.05" xlink:href="#a" y1="577.85" y2="529.94"/><path d="m1023.41 751.25a139.92 139.92 0 0 1 -27.7-.37c-101.12-11.18-238.82-8-351.07 61.55-155.24 96.17-398.53 13.84-505.85-30.95-82-34.21-124.57-118-99-196.65.36-1.11.73-2.22 1.12-3.33 16.09-46.74 47.85-83.32 87.18-102.71 34.28-16.9 84.33-52.19 106.6-120 9.2-28 21.82-54.34 38.21-77.3 43.89-61.49 135.77-153.06 293.79-152.49a254.66 254.66 0 0 1 81.41 13.78c57.73 19.67 109.87 59.66 149.63 115.1 25.37 35.36 63.39 68.23 117.82 70.91 75.54 3.74 147.63 38.91 201.71 101.5 1.56 1.8 3.1 3.61 4.64 5.44 96.29 114.71 29.41 304.34-98.49 315.52z" fill="#4682b3" transform="translate(-32.41 -42.89)"/><circle cx="277.46" cy="683.31" fill="url(#a)" opacity=".7" r="13.8"/><circle cx="277.46" cy="683.31" opacity=".2" r="13.18"/><g fill="#fff"><circle cx="203.11" cy="414.14" r="5.1"/><circle cx="567.11" cy="710.14" r="5.1"/><circle cx="352.11" cy="736.14" r="2.85"/><circle cx="983.11" cy="598.14" r="2.85"/><circle cx="820.11" cy="342.14" r="2.85"/><circle cx="1051.11" cy="467.14" r="2.85"/><circle cx="293.11" cy="247.14" r="5.1"/><path d="m152.94 592.21h-4.54v-4.54h-1.85v4.54h-4.54v1.85h4.54v4.53h1.85v-4.53h4.54z"/><path d="m266.94 590.21h-4.54v-4.54h-1.85v4.54h-4.54v1.85h4.54v4.53h1.85v-4.53h4.54z"/><path d="m429.94 682.21h-4.54v-4.54h-1.85v4.54h-4.54v1.85h4.54v4.53h1.85v-4.53h4.54z"/><path d="m656.97 130.71h-2.07v-2.07h-.84v2.07h-2.07v.84h2.07v2.07h.84v-2.07h2.07z"/><path d="m951.97 320.71h-2.07v-2.07h-.84v2.07h-2.07v.84h2.07v2.07h.84v-2.07h2.07z"/><path d="m777.97 444.71h-2.07v-2.07h-.84v2.07h-2.07v.84h2.07v2.07h.84v-2.07h2.07z"/><path d="m69.97 522.71h-2.07v-2.07h-.84v2.07h-2.07v.84h2.07v2.07h.84v-2.07h2.07z"/><path d="m154.97 692.71h-2.07v-2.07h-.84v2.07h-2.07v.84h2.07v2.07h.84v-2.07h2.07z"/><path d="m421.97 155.71h-2.07v-2.07h-.84v2.07h-2.07v.84h2.07v2.07h.84v-2.07h2.07z"/><path d="m295.97 454.71h-2.07v-2.07h-.84v2.07h-2.07v.84h2.07v2.07h.84v-2.07h2.07z"/><path d="m322.97 368.71h-2.07v-2.07h-.84v2.07h-2.07v.84h2.07v2.07h.84v-2.07h2.07z"/></g><circle cx="748.15" cy="555.65" fill="url(#b)" opacity=".7" r="11.52"/><circle cx="748.15" cy="555.65" opacity=".2" r="10.67"/><circle cx="776.88" cy="630.76" opacity=".2" r="11.93"/><path d="m702.38 349.92a154.77 154.77 0 0 0 -17.5-72c-5.49-10.44-10.5-16.92-14.36-20.91a10.25 10.25 0 0 0 -11.74-2.26 10.64 10.64 0 0 0 -4.11 2.65c-5.21 5.4-9.92 12.54-14 20.13a155.43 155.43 0 0 0 -18.37 74v15.48h-9.93v-180.01c0-37.72-8.44-74.93-25-107.93-7.84-15.64-15-25.36-20.49-31.33a14.2 14.2 0 0 0 -21.35 0c-7.44 8.09-14.16 18.79-20 30.16-17.39 33.72-26.22 72-26.22 110.82v178.22h-8.58v-16.23a155.39 155.39 0 0 0 -18.37-73.95c-4.11-7.59-8.82-14.73-14-20.13a10.27 10.27 0 0 0 -12-2.18l.36.19a10.76 10.76 0 0 0 -3.35 2.34c-3.85 4-8.86 10.47-14.35 20.91a154.77 154.77 0 0 0 -17.5 72v269h30.64l-3.38 22.11v66.13h25.06v-66.13l-3.35-22.12h30.2v-245h8.58v243.94h24.47l-3.51 23.18v66.13h25.06v-66.13l-3.51-23.21h33l-3.53 23.21v66.13h25.06v-66.13l-3.51-23.21h19.54v-243.88h9.93v245.37h8.05v-.37h26.62l-3.34 22.09v66.13h25.06v-66.13l-3.35-22.12h27.07z" fill="url(#c)" opacity=".7" transform="translate(-32.41 -42.89)"/><path d="m436.4 585.25h-23.73l4.24-28.81h15.25z" fill="#535461"/><path d="m415.73 567.88h17.61l-1.18-8.05h-15.25z" opacity=".1"/><path d="m639.75 585.25h-23.72l4.23-28.81h15.26z" fill="#535461"/><path d="m619.08 567.88h17.62l-1.18-8.05h-15.26z" opacity=".1"/><path d="m513.5 585.25h-23.72l4.23-28.81h15.26z" fill="#535461"/><path d="m492.83 567.88h17.62l-1.18-8.05h-15.26z" opacity=".1"/><path d="m561.8 585.25h-23.72l4.23-28.81h15.25z" fill="#535461"/><path d="m541.13 567.88h17.62l-1.19-8.05h-15.25z" opacity=".1"/><path d="m436.4 318.35h169.46v6.78h-169.46z" fill="#535461"/><path d="m664.46 254.16a9.55 9.55 0 0 0 -14.16 0c-4.93 5.26-9.39 12.21-13.28 19.6a154.77 154.77 0 0 0 -17.39 72v260.84h75v-261.94a154.22 154.22 0 0 0 -16.57-70.14c-5.21-10.16-9.95-16.52-13.6-20.36z" fill="#e0e0e0" transform="translate(-32.41 -42.89)"/><path d="m449.39 254.16a9.55 9.55 0 0 1 14.16 0c4.94 5.26 9.39 12.21 13.29 19.6a154.89 154.89 0 0 1 17.39 72v260.84h-75v-261.94a154.22 154.22 0 0 1 16.57-70.14c5.2-10.16 9.94-16.52 13.59-20.36z" fill="#e0e0e0" transform="translate(-32.41 -42.89)"/><path d="m387.25 307.33 17.8.09v21.94h-17.8z" fill="#535461"/><path d="m444.02 307.33 17.8.09v21.94h-17.8z" fill="#535461"/><path d="m587.22 307.33 17.79.09v21.94h-17.79z" fill="#535461"/><path d="m643.99 307.33 17.79.09v21.94h-17.79z" fill="#535461"/><path d="m476.84 273.42c-3.9-7.39-8.35-14.34-13.29-19.6a9.51 9.51 0 0 0 -11.33-2.13 10.11 10.11 0 0 1 2.86 2.13c4.93 5.26 9.39 12.21 13.28 19.6a154.75 154.75 0 0 1 17.39 72v260.82h8.48v-260.81a154.88 154.88 0 0 0 -17.39-72.01z" opacity=".1" transform="translate(-32.41 -42.89)"/><path d="m643.8 274.14c3.89-7.39 8.35-14.34 13.28-19.6a9.92 9.92 0 0 1 3.28-2.34 9.54 9.54 0 0 0 -10.9 2.34c-4.94 5.26-9.4 12.21-13.29 19.6a154.89 154.89 0 0 0 -17.39 72v260.86h7.63v-260.84a154.77 154.77 0 0 1 17.39-72.02z" opacity=".1" transform="translate(-32.41 -42.89)"/><path d="m457.27 692.54h-.65a11.54 11.54 0 0 1 -11.54-11.54v-52.86h23.73v52.86a11.54 11.54 0 0 1 -11.54 11.54z" fill="url(#d)" transform="translate(-32.41 -42.89)"/><path d="m534.38 692.54h-.66a11.54 11.54 0 0 1 -11.53-11.54v-52.86h23.72v52.86a11.54 11.54 0 0 1 -11.53 11.54z" fill="url(#e)" transform="translate(-32.41 -42.89)"/><path d="m582.67 692.54h-.67a11.54 11.54 0 0 1 -11.51-11.54v-52.86h23.72v52.86a11.54 11.54 0 0 1 -11.54 11.54z" fill="url(#f)" transform="translate(-32.41 -42.89)"/><path d="m660.63 692.54h-.63a11.54 11.54 0 0 1 -11.56-11.54v-52.86h23.72v52.86a11.54 11.54 0 0 1 -11.53 11.54z" fill="url(#g)" transform="translate(-32.41 -42.89)"/><path d="m566.34 49.64a13.2 13.2 0 0 0 -20.21 0c-7 7.88-13.4 18.29-19 29.37-16.46 32.84-24.82 70.12-24.82 107.92v418.61h107v-420.29c0-36.73-8-73-23.64-105.1-7.35-15.23-14.12-24.7-19.33-30.51z" fill="#eee" transform="translate(-32.41 -42.89)"/><rect fill="#535461" height="25.59" rx="11" width="55.84" x="494.79" y="53.25"/><path d="m470.48 158.35h105.91v4.11h-105.91z" opacity=".1"/><path d="m793.45 354.22a34.62 34.62 0 0 0 -10.22-9 34.33 34.33 0 1 0 -17.17 64.07c.73 0 1.46 0 2.17-.08a34.32 34.32 0 0 0 25.23-54.93z" fill="url(#h)" transform="translate(-32.41 -42.89)"/><path d="m798.5 374.9a32.45 32.45 0 0 1 -30.4 32.38c-.67 0-1.36.07-2.05.07a32.46 32.46 0 1 1 16.23-60.56 32.59 32.59 0 0 1 9.66 8.56 32.3 32.3 0 0 1 6.56 19.55z" opacity=".2" transform="translate(-32.41 -42.89)"/><path d="m758.06 354.31a34.88 34.88 0 0 0 -4.84 2.55 7.61 7.61 0 0 0 -2.59 2.32 3 3 0 0 0 -.06 3.31c.79 1.08 2.31 1.24 3.65 1.32a9.34 9.34 0 0 0 4.18-.42 9 9 0 0 0 2.44-1.77l2.79-2.53c1-.88 2-2.09 1.61-3.33a3 3 0 0 0 -2.37-1.6 9.92 9.92 0 0 0 -7 1.23" opacity=".1" transform="translate(-32.41 -42.89)"/><circle cx="714" cy="344.82" opacity=".1" r="1.71"/><circle cx="748.72" cy="334" opacity=".1" r="6.26"/><path d="m792 355.35a8.54 8.54 0 1 1 -9.67-8.56 32.59 32.59 0 0 1 9.67 8.56z" opacity=".1" transform="translate(-32.41 -42.89)"/><path d="m792.58 393.58a32.37 32.37 0 0 1 -24.48 13.7c0-.45-.06-.9-.06-1.36a15.38 15.38 0 0 1 24.54-12.34z" opacity=".1" transform="translate(-32.41 -42.89)"/><path d="m350.17 539.47a24.15 24.15 0 0 0 -7.14-6.32 24 24 0 1 0 -12 44.7c.51 0 1 0 1.52-.05a24 24 0 0 0 17.6-38.33z" fill="url(#i)" transform="translate(-32.41 -42.89)"/><path d="m353.69 553.9a22.64 22.64 0 0 1 -21.21 22.59c-.47 0-1 0-1.43 0a22.64 22.64 0 1 1 11.32-42.25 22.67 22.67 0 0 1 6.74 6 22.52 22.52 0 0 1 4.58 13.66z" opacity=".2" transform="translate(-32.41 -42.89)"/><path d="m325.47 539.54a23.5 23.5 0 0 0 -3.37 1.77 5.54 5.54 0 0 0 -1.81 1.62 2.13 2.13 0 0 0 0 2.31 3.23 3.23 0 0 0 2.54.92 6.51 6.51 0 0 0 2.92-.29 6.29 6.29 0 0 0 1.71-1.24l1.94-1.76c.68-.62 1.42-1.46 1.12-2.32a2 2 0 0 0 -1.65-1.12 6.87 6.87 0 0 0 -4.87.86" opacity=".1" transform="translate(-32.41 -42.89)"/><circle cx="284.93" cy="519.94" opacity=".1" r="1.19"/><circle cx="309.16" cy="512.4" opacity=".1" r="4.37"/><path d="m349.12 540.26a6 6 0 1 1 -6.75-6 22.67 22.67 0 0 1 6.75 6z" opacity=".1" transform="translate(-32.41 -42.89)"/><path d="m349.56 566.93a22.59 22.59 0 0 1 -17.08 9.56c0-.31 0-.63 0-1a10.73 10.73 0 0 1 17.12-8.61z" opacity=".1" transform="translate(-32.41 -42.89)"/><path d="m837.69 539.42 21.8 11.6-17.02 19.04" fill="none"/><circle cx="954.9" cy="428.23" fill="#fff" r="1.84"/></svg>