<svg height="663" viewBox="0 0 1200 663" width="1200" xmlns="http://www.w3.org/2000/svg"><path d="m1200-.5v663h-213.56q-4.53 0-9.06-.06l-2.16-.03q-3.67492-.045-7.35-.15-11.25-.27007-22.46-.86005c-124.91-6.47995-246.54-42.60995-355.85-104.25995-260.77-147.09-589.56-81.49-589.56-81.49v-476.15z" fill="#4578ad" transform="translate(0 .5)"/><path d="m252.36 0-64.09 44-71.23 48.9-7.64 5.25-58.4 40.09-51 35.01v-90.69l23-15.79 4.89-3.36 23.11-15.86 5.16-3.55 64.1-44z" opacity=".1"/><path d="m425 0-101 69.34-96.96 66.56-7.64 5.25-7.07 4.85-212.33 145.76v-90.7l80.22-55.06 52.78-36.23 4.89-3.36 90.91-62.41 64.1-44z" opacity=".1"/><path d="m1148 333.5h-370v-247h370zm-368-2h366v-243h-366z" fill="#d0cde1" transform="translate(0 .5)"/><path d="m860 191h44v116h-44z" fill="#3f3d56"/><path d="m941 236h44v71h-44z" fill="#3f3d56"/><path d="m1022 143h44v164h-44z" fill="#3f3d56"/><circle cx="963" cy="191" fill="#3f3d56" r="22"/><path d="m325 146.5h-275v-104h275zm-273-2h271v-100h-271z" fill="#d0cde1" transform="translate(0 .5)"/><path d="m630 320.5h-150v-73h150zm-148-2h146v-69h-146z" fill="#d0cde1" transform="translate(0 .5)"/><path d="m161.5 72.5 52 23-52 22z" fill="#3f3d56"/><circle cx="521" cy="284.5" fill="#3f3d56" r="11"/><circle cx="555" cy="284.5" fill="#3f3d56" r="11"/><circle cx="589" cy="284.5" fill="#3f3d56" r="11"/><path d="m553.25654 168.36131-10.198 13.04337c-16.26037-23.06956-35.72884-41.77074-57.92782-55.59373a188.15837 188.15837 0 0 0 -60.64731-24.30871c-37.03479-7.85752-65.59741-2.55754-65.88141-2.50364l.68627 3.58427c.27724-.05346 28.11535-5.21722 64.43755 2.48893 32.899 6.97965 79.47812 26.26464 116.21162 78.24788l-16.0827 3.47889c10.121 3.0603 22.50945 10.46765 31.27205 17.204-2.25069-10.81983-3.52327-25.1977-1.87025-35.64126z" fill="#d0cde1" transform="translate(0 .5)"/><path d="m830.74341 386.75665c-.22138.17639-22.56421 17.77008-58.33551 27.84125-32.334 9.1048-82.4823 13.68738-139.12946-15.18286l12.61133-10.56372c-10.3819 2.00384-24.79449 1.21649-35.684-.6684 7.02777 8.5307 14.84827 20.66254 18.24786 30.67468l2.95392-16.29486c25.13165 12.84589 51.0683 20.33185 77.15039 22.22931q6.71091.48908 13.43872.48822a189.38573 189.38573 0 0 0 51.552-7.21246c36.43408-10.28943 59.2442-28.27869 59.47045-28.45862z" fill="#d0cde1" transform="translate(0 .5)"/><path d="m278.25659 361.75665c.22138.17639 22.56421 17.77008 58.33551 27.84125 32.334 9.1048 82.4823 13.68738 139.12946-15.18286l-12.61133-10.56372c10.3819 2.00384 24.79449 1.21649 35.684-.6684-7.02777 8.5307-14.84827 20.66254-18.24786 30.67468l-2.95392-16.29486c-25.13165 12.84589-51.0683 20.33185-77.15039 22.22931q-6.71091.48908-13.43872.48822a189.38573 189.38573 0 0 1 -51.552-7.21246c-36.43408-10.28943-59.2442-28.27869-59.47045-28.45862z" fill="#d0cde1" transform="translate(0 .5)"/><path d="m227.50005 408.21147h-154v-154h154zm-151.86111-2.13889h149.72222v-149.72222h-149.72222z" fill="#d0cde1" transform="translate(0 .5)"/><g fill="#3f3d56"><path d="m103.44449 303.4194h94.11111v8.58413h-94.11111z"/><path d="m103.44449 327.4194h94.11111v8.58413h-94.11111z"/><path d="m103.44449 351.4194h94.11111v8.58413h-94.11111z"/><path d="m685.89593 109.63454a12 12 0 1 1 12 12 12.01344 12.01344 0 0 1 -12-12zm2 0a10 10 0 1 0 10-10 10.01146 10.01146 0 0 0 -10 10z" transform="translate(0 .5)"/><path d="m825.58125 550.37186-17.66389-18.93786 18.93783-17.66388 17.66388 18.93788zm-14.84837-18.83986 14.94636 16.02431 16.02432-14.94631-14.94637-16.02431z" transform="translate(0 .5)"/><path d="m357.58125 222.37186-17.66389-18.93786 18.93783-17.66388 17.66388 18.93788zm-14.84837-18.83986 14.94636 16.02431 16.02432-14.94631-14.94637-16.02431z" transform="translate(0 .5)"/></g><circle cx="1004.03206" cy="383.39419" fill="#2f2e41" r="66.94428"/><path d="m1093.67993 662.5h-107.23993q-4.53 0-9.06-.06l-2.16-.03q-3.67492-.045-7.35-.15l-2.38-9.41 4.76-.81 5.72-.97 54.88-9.32 45.70007-7.76a9.82819 9.82819 0 0 1 4.29993.21 10.00741 10.00741 0 0 1 7.37 8.92c.45993 6.23 1.84006 13.84 5.45993 19.38z" fill="#2f2e41" transform="translate(0 .5)"/><circle cx="992.11124" cy="407.92455" fill="#a0616a" r="43.99"/><path d="m992.11124 446.784s15.43509 39.35947 3.087 46.30526-18.5221 7.71754-18.5221 7.71754l-13.11981 22.3809-7.71754 23.15263 61.74034 2.31526 43.21825-68.68613s-20.83737-10.80456-31.64193-57.10982z" fill="#a0616a" transform="translate(0 .5)"/><path d="m1072.75957 481.12709s-7.85045-5.15758-15.11567-3.35054a56.1703 56.1703 0 0 0 -10.35222 3.35054s-40.13123 54.79456-61.74035 56.33806c0 0-28.55491 7.71755-21.60912-3.85877s22.16492-35.94186 22.16492-35.94186-27.5672 6.6152-27.5672 15.87625-5.40228 26.23965-5.40228 26.23965-26.23965 26.23964 0 57.10982 16.20684 58.65332 16.20684 58.65332l115.76315-20.83736z" fill="#d0cde1" transform="translate(0 .5)"/><path d="m967.87 662.26q-11.25-.27007-22.46-.86005l4.48-68.68.93-14.35 20.84 39.36s1.86005 13.75 4.31 33.34c.14 1.05.27 2.11.41 3.19995.32 2.64.66 5.37 1 8.17l-2.16-.03q-3.675-.0449-7.35-.1499z" fill="#d0cde1" transform="translate(0 .5)"/><circle cx="1031.76938" cy="322.51917" fill="#2f2e41" r="27.70108"/><path d="m994.83461 307.01442a27.70394 27.70394 0 0 1 24.81555-27.55131 28.0066 28.0066 0 0 0 -2.88553-.14977 27.70108 27.70108 0 0 0 0 55.40216 28.00659 28.00659 0 0 0 2.88553-.14978 27.70392 27.70392 0 0 1 -24.81555-27.5513z" fill="#2f2e41" transform="translate(0 .5)"/><ellipse cx="996.69297" cy="382.66655" fill="#2f2e41" rx="27.70108" ry="46.16847" transform="matrix(.25682227 -.96645865 .96645865 .25682227 370.88868 1248.15185)"/><path d="m1083.24 611.41c-.8999 9.18-1.75 17.08-2.39 22.79-.05994.44995-.1.88-.15 1.3-.60986 5.35-.99 8.47-.99 8.47l-9.17 18.53h-48.88c2.82-6.44 5.48-12.45 7.86-17.79.46-1.01.8999-2 1.33-2.96 5.35-11.87 9.11-19.79 9.88-20.55 3.09009-3.09 12.74-135.44 12.74-135.44s7.48-6.41 15.68-6.5h.00989c5.7301-.07 11.82007 2.96 15.95008 13.44 6.74003 17.12 1.98012 79.61-1.86997 118.71z" fill="#d0cde1" transform="translate(0 .5)"/><path d="m955.45867 599.7319s17.03057 36.1137 15.65113 45.76974-15.65113-45.76974-15.65113-45.76974z" opacity=".1" transform="translate(0 .5)"/><ellipse cx="1039.18826" cy="405.60929" fill="#a0616a" rx="3.85877" ry="7.71754"/></svg>