<svg height="755" viewBox="0 0 1027 755" width="1027" xmlns="http://www.w3.org/2000/svg"><ellipse cx="411.65646" cy="723.2439" fill="#f2f2f2" rx="170.65646" ry="31.7561"/><path d="m66 88.25h910v490h-910z" fill="#f2f2f2"/><path d="m890 472.65136h86v105.59864h-86z" fill="#3f3d56"/><path d="m1050.21429 603.54c0 20.5086-12.192 27.66944-27.23168 27.66944s-27.23167-7.16084-27.23167-27.66944 27.23167-46.59877 27.23167-46.59877 27.23168 26.09017 27.23168 46.59877z" fill="#4578ad" transform="translate(-86.5 -72.5)"/><path d="m935.491 555.572.278-17.164 11.607-21.234-11.563 18.542.126-7.718 7.999-15.362-7.966 13.32.225-13.88 8.566-12.231-8.53 10.048.141-25.452-.886 33.694.073-1.39-8.709-13.331 8.569 15.999-.811 15.502-.024-.411-10.04-14.029 10.009 15.482-.101 1.939-.018.029.008.159-2.059 39.33h2.751l.33-20.315 9.985-15.444z" fill="#3f3d56"/><path d="m219.5 116.5a22 22 0 1 1 22-22 22.02489 22.02489 0 0 1 -22 22zm0-42a20 20 0 1 0 20 20 20.02292 20.02292 0 0 0 -20-20z" fill="#3f3d56" transform="translate(-86.5 -72.5)"/><circle cx="13" cy="129" fill="#3f3d56" r="13"/><circle cx="1014" cy="224" fill="#3f3d56" r="13"/><path d="m189.5 188.25h664v6h-664z" fill="#3f3d56"/><path d="m189.5 242.25h664v6h-664z" fill="#3f3d56"/><path d="m189.5 296.25h664v6h-664z" fill="#3f3d56"/><path d="m302.5 166.25h16v50h-16z" fill="#4578ad"/><path d="m484.5 220.25h16v50h-16z" fill="#4578ad"/><path d="m796.5 274.25h16v50h-16z" fill="#4578ad"/><path d="m189.5 420.25h236v6h-236z" fill="#3f3d56"/><path d="m189.5 442.25h118v6h-118z" fill="#3f3d56"/><path d="m225.5 500.25h-37v-37h36v2h-34v33h33v-18.811h2z" fill="#3f3d56"/><path d="m617.5 420.25h236v6h-236z" fill="#3f3d56"/><path d="m617.5 442.25h76v6h-76z" fill="#3f3d56"/><path d="m777.5 442.25h76v6h-76z" fill="#3f3d56"/><path d="m740 572.75h-37v-37h37zm-35-2h33v-33h-33z" fill="#3f3d56" transform="translate(-86.5 -72.5)"/><path d="m378.024 333.278h-26.256v-12.86h21.969l4.823 2.679z" fill="#575a89"/><path d="m332.478 687.469 1.071 19.291 16.076-3.215-2.68-19.291z" fill="#ffb9b9"/><g transform="translate(-86.5 -72.5)"><path d="m495.06711 749.78838s.53585 16.07524-1.07168 20.362 4.28673 6.4301 4.28673 6.4301h12.86019l7.50178 1.07168v-8.03766s-8.57346-13.396-8.57346-20.8978-15.00356 1.07168-15.00356 1.07168z" fill="#ffb9b9"/><path d="m421.65687 776.0446s10.71683-5.06307 14.46771-1.99569 17.68276 29.32359 12.32435 30.93109c0 0-3.75089 6.4301-16.61108 2.14337s-12.86018-9.1093-12.86018-9.1093-3.75089-3.21505-3.75089-4.28673 1.60752-10.71683 1.60752-10.71683 1.189-8.06968 3.00577-7.51781z" fill="#2f2e41"/><path d="m496.1388 768.007s-1.60753-1.60752-2.67921 0-6.96594 21.96949-1.60752 23.04117 13.396 4.82257 14.46771 3.75089a14.68006 14.68006 0 0 0 2.14336-3.75089s8.57346 3.75089 11.25267 6.96594 34.82968 10.181 33.758 0-17.14691-18.75445-17.14691-18.75445l-17.68276-11.7885s-6.96594.53584-8.57346 3.75089-12.8602 2.67918-13.93188-3.21505z" fill="#2f2e41"/><path d="m339.13733 560.63644s-5.89425 7.50178-4.82257 8.03762 24.64869 5.89425 37.50888 2.67921 39.65225-2.67921 41.25977-6.4301 21.43365-50.36907 21.43365-50.36907l-6.43006-35.36552-6.96594-9.1093-16.07524-13.93187-32.15047 60.01421z" fill="#575a89"/><path d="m339.13733 560.63644s-5.89425 7.50178-4.82257 8.03762 24.64869 5.89425 37.50888 2.67921 39.65225-2.67921 41.25977-6.4301 21.43365-50.36907 21.43365-50.36907l-6.43006-35.36552-6.96594-9.1093-16.07524-13.93187-32.15047 60.01421z" opacity=".1"/><path d="m407.18916 547.77625s-7.50178 26.79206 0 63.7651.53584 45.01066 2.14336 46.61819 2.14337 1.07168 2.14337 2.6792 1.60752 9.1093 0 11.78851-1.60752 87.87795 3.21505 90.02132 18.75444 7.50177 21.43364 0 .53584-61.62174 1.60753-64.30094 1.07168-9.1093 1.07168-10.71683 3.21505-19.82612 3.75089-24.64869 2.14332-14.46771 2.14332-14.46771-1.07168-38.04473 2.14337-49.29739 4.28673-12.32435 4.28673-12.32435l25.72037 66.98015s-2.14336 6.96593 0 9.1093-.53584 1.60752 1.60753 5.35841 4.28673 4.82257 4.28673 6.96594-2.14337 2.14336-1.07169 3.75088 2.67921 7.50178 2.67921 7.50178l-2.67921 6.43009s1.60753 13.396 3.75089 21.43365 2.14337 40.72393 4.82257 41.25977 23.577 6.4301 23.577-5.89425-1.60753-65.90847-1.60753-65.90847-3.215-8.03761-3.215-10.181-.53584-3.21505.53585-4.28673 2.14336-3.215.53584-4.82257-1.07169-3.75089-1.07169-5.89425a46.89912 46.89912 0 0 0 -1.07168-8.57346c-.53584-2.14337-10.71682-69.12351-10.71682-69.12351s2.14336-8.03762 0-8.57346-2.14337-4.82257-2.14337-6.96594 5.35842-28.93542-1.07168-28.93542-86.80626 11.25268-86.80626 11.25268z" fill="#2f2e41"/><path d="m336.45812 515.62578-7.50177 3.75089s-26.79206 14.46771-15.00356 22.50533 23.577-11.25266 23.577-11.25266l11.25266-8.57346z" fill="#ffb9b9"/><path d="m440.94715 368.8053s-2.14336 24.64869-13.396 30.0071-3.75088 45.5465-3.75088 45.5465l15.53939 15.00356 27.3279-8.03762 3.21505-18.2186 2.6792-18.75444-6.43009-9.64514s-8.03762-2.14337-4.82257-23.577-20.362-12.32436-20.362-12.32436z" fill="#ffb9b9"/><path d="m424.87192 407.38586s12.32435 40.72393 20.8978 40.72393 13.396-9.64514 14.46772-21.43364 8.03761-24.6487 8.03761-24.6487l16.61108 15.00355s13.396 118.42091 12.32435 121.636-42.8673 6.96594-59.47837 11.78851-33.22211 1.07163-33.22211-1.60757c0-2.38617 8.50073-23.04889 2.03221-38.13966a62.863 62.863 0 0 1 -4.74647-16.87547c-1.00113-7.94439-1.93086-17.55771-1.03662-20.53848 1.60752-5.35841 10.181-62.15758 10.181-62.15758z" fill="#4578ad"/><path d="m433.94457 392.601s-9.60849 5.13969-13.89522 7.28306-30.543 8.57346-31.07879 11.7885 3.75089 48.22571 1.60752 53.04828-23.577 47.68987-23.577 47.68987l-1.07168 9.1093s-35.36552 42.33145-31.07879 47.154 20.362-15.00355 20.362-15.00355 35.90136-57.335 36.97305-59.47838 23.04117-41.79561 26.25621-42.86729 10.71683-46.08234 11.78851-48.22571 5.28507-11.351 3.71419-10.49808z" fill="#575a89"/><path d="m391.64977 411.13675h-3.215s-11.78851 45.01066-15.00355 50.90491-3.75089 15.5394-4.28673 17.14692-2.67921 1.07168-3.215 4.82257-5.89425 8.57346-10.181 10.71683-23.577 20.362-23.04117 20.8978 6.43009 19.29028 10.181 19.29028 18.75444-18.2186 20.362-18.2186 8.57346-6.43009 9.64514-6.96593 28.39959-50.90491 27.3279-63.22926-8.57359-35.36552-8.57359-35.36552z" fill="#575a89"/><path d="m525.34922 549.95865 6.60019 5.17525s23.35781 19.5331 10.20012 25.051-20.85061-15.74008-20.85061-15.74008l-9.31092-10.65045z" fill="#ffb9b9"/><path d="m460.65418 393.23614s7.085 3.4329 10.30008 6.11211 27.86374 9.64514 27.86374 11.7885-2.6792 35.36552-2.6792 35.36552l3.75088 58.94253s5.35842 66.44431 6.4301 68.05183 2.6792 10.181 0 10.181-16.07524-15.00355-15.5394-22.50533 4.28673-24.64869.53585-28.93542-21.43365-76.08945-21.43365-80.37618-7.50178-47.154-6.96594-48.22571-2.26246-10.39885-2.26246-10.39885z" fill="#575a89"/><path d="m490.78038 410.60091 8.03762.53584 19.82613 80.912s1.60752 10.181 2.14336 11.25267 8.57346 47.68986 5.35841 49.29738-13.93187 7.50178-14.46771 3.75089-5.89425-24.64869-11.25266-29.47126-10.71683-87.878-10.71683-87.878z" fill="#575a89"/></g><circle cx="372.12991" cy="288.80352" fill="#ffb9b9" r="21.96949"/><path d="m443.29826 362.908c1.39789-.71805 3.23729-.04219 4.52757 1.52069a21.44281 21.44281 0 0 1 31.166-14.48838v-2.23328a18.554 18.554 0 0 0 -18.554-18.554h-4.45967a34.8571 34.8571 0 0 0 -34.85716 34.8571v6.22124a31.25133 31.25133 0 0 0 17.114 27.87356l20.064-10.62211a21.44539 21.44539 0 0 1 -10.74064-15.93235c-1.69792.74136-3.97171-.45849-5.15459-2.7613-1.21708-2.36912-.81651-5.00217.89449-5.88117z" fill="#2f2e41" transform="translate(-86.5 -72.5)"/><path d="m195.583 475.174 10.917 12.326 23.864-23.392" fill="none" stroke="#57b894" stroke-miterlimit="10" stroke-width="4"/></svg>