<svg height="1954.667" viewBox="0 0 1466 1466" width="1954.667" xmlns="http://www.w3.org/2000/svg"><path d="m755.8 52.4c-.1.2-31.3.6-69.3 1-37.9.4-73.3.9-78.5 1.1-5.2.3-20.2.7-33.3 1-13.1.2-24.2.7-24.8 1-.5.4-.9.1-.9-.5s-.5-.8-1.1-.4c-1.2.7-4.9 1-23.9 1.9-17.4.7-38.5 2-48.7 2.9-2.7.2-4.3-.1-4.3-.8 0-.8-.2-.8-.8.1-.7 1.2-7.1 1.9-25.1 2.8-5.7.3-10.7.7-11 1-.4.2-5.4.9-11.2 1.5-5.7.6-12.2 1.4-14.4 1.7s-5.2.6-6.7.7c-1.4.1-2.5.3-2.3.6.6.9-20.2 4.3-22 3.6-.9-.3-1.4-.2-1.1.3s-1.6 1.2-4.2 1.6c-2.6.3-5.6.8-6.7 1.1-1.1.2-3.6.6-5.5.8-7.3 1-28.9 6.7-38.5 10.2-5.5 2-10.9 3.8-12 4.1-1.1.4-6.2 2.8-11.2 5.4-5.1 2.7-9.3 4.6-9.3 4.3s-.7.1-1.5.8c-3.4 3.1-4.3 3.6-4.9 3.1-.3-.4-.6-.1-.6.5 0 .7-.6 1.2-1.4 1.2s-1.6.3-1.8.8c-.1.4-2.2 2.2-4.5 4-2.9 2.3-4.3 2.9-4.7 2-.3-.8-.5-.7-.3.3.3 2-9.3 12-10.6 11.2-.6-.3-.7-.1-.3.5.3.6-.4 1.8-1.6 2.7-1.3.8-2.3 1.9-2.3 2.3s-.6 1.4-1.2 2.2c-4.5 5.3-6.3 7.9-6.3 9 0 .6-.4.9-.8.6-.4-.2-.8.3-.9 1.2 0 .9-.8 5.1-1.8 9.2-1.2 5.5-1.7 13.1-1.8 28.8-.2 16.5-.5 21.5-1.5 22.1-.8.5-1.4 1.2-1.4 1.7s-2 2.9-4.4 5.3c-2.5 2.4-4.4 3.8-4.2 3s.8-1.8 1.3-2.2c.6-.5.4-.7-.4-.5s-1.6 1.4-1.8 2.7c-.3 2-4.9 7-6.5 7.1-.4 0-2.2 1.6-3.9 3.5-1.8 1.9-3.5 3.2-3.9 3-.4-.3-1.5.7-2.4 2-1 1.5-2.2 2.3-2.9 1.9s-.9-.3-.4.1c.4.5-.8 2.5-2.7 4.4-2 2-10.1 10.3-18.2 18.6-8 8.2-15 14.9-15.6 14.7-.5-.1-.7.2-.3.8.3.5-1.4 3.1-3.8 5.8-2.4 2.6-5.9 6.4-7.7 8.5-3.3 3.8-5.9 4.4-7.2 1.7-.6-1.1-.7-1-.5.5.2 1.1.9 1.9 1.5 1.8 1.3-.3 1.6.9.5 2-.3.4-1.3.1-2.1-.6-1.3-1-1.4-.9-.4.9 1.5 2.7-.2 4.3-3.8 3.7-2.3-.3-2.3-.3-.6 1 1.6 1.2 1.7 1.5.5 2.3-2 1.2-4 1.4-3.3.3.3-.5 1.1-.6 1.7-.2.7.4.6 0-.2-1-.7-.9-2.1-1.7-3-1.6-1.2 0-1.2.2.3.8s1.7.9.6 1.6c-1 .6-1 1 .4 2 1.5 1.2 1.5 1.3 0 1.9-.9.4-1.9.4-2.2.1s.1-.5.9-.5c1.2 0 1.2-.2-.1-.9-1.9-1.3-2.9-.5-2.3 1.9.3 1.1 1 1.7 1.7 1.4.6-.3-.1.6-1.6 1.9-1.5 1.4-2.4 2.8-2 3.3.4.4.1.4-.7-.1-1.2-.7-1.2-1 .2-2s1.4-1.2-.4-2.3c-1.1-.7-1.9-.8-1.9-.2 0 .5.5 1 1.1 1 .8 0 .7.5-.1 1.5-.9 1.1-1 1.9-.3 2.6 1.5 1.5-2.3 5.2-4.5 4.5-1.5-.5-1.5-.5 0 .8 1.7 1.2 1.7 1.4 0 3-1 .9-2.2 1.3-2.7.9-.4-.5-.5-.2-.1.5.5.8-1.5 4.1-5.5 9-3.4 4.2-6.6 7.8-7.1 8-.4.2-.8.8-.8 1.3 0 1.6-4.3 5.8-5.3 5.2-.6-.3-.7-.1-.3.5.6 1-5.9 11.3-7.6 12-.5.2-.8.8-.8 1.3 0 1.8-4.7 7.9-5.4 7.2-.4-.4-.4 0 0 1 .4 1.2.1 1.7-1.2 1.8-1.1 0-1.4.3-.7.5 1.2.6-4.3 10.4-5.8 10.4-.5 0-.8.6-.7 1.2.2.7-.2 1.2-.9 1.1-.8-.2-1 .4-.6 1.4.4 1.1.3 1.4-.5.9s-1-.2-.6.8c.3.9.1 1.6-.6 1.6-.6 0-.9.4-.6.8.3.5-.2 1.8-1.2 2.8-.9 1.1-1.8 2.6-2 3.4s-1 2.1-1.9 2.7c-1 .8-1.2 1.3-.5 1.3s.2 1.9-1.5 5c-1.4 2.7-3 4.7-3.5 4.4-.4-.3-.5.2-.2 1 .3.9.1 1.6-.6 1.6-.6 0-.8.5-.4 1.2.5.8.2.9-1.1.4-1.6-.6-1.6-.4-.4 1.1 1.2 1.4 1.2 1.6 0 .8-1.1-.6-1.3-.4-.8.8.3 1 .2 1.7-.3 1.7-.6 0-1 .8-1 1.9 0 1-.7 2.4-1.5 3.1-.9.7-1.3 1.5-1.1 1.8.7.7-2.6 6.2-3.7 6.2-.4 0-.5.4-.2 1 .3.5.1 1-.5 1s-.8.4-.5 1-.1.7-1 .4c-1.2-.5-1.3-1-.4-2 .6-.7.7-1.9.3-2.5-.5-.9-.2-1 .9-.6 2 .8 2.9-.4 1.6-2.3-.6-1-.9-1.1-.9-.3 0 .7-.5 1.3-1.1 1.3-.5 0-.8-.4-.5-.8.2-.4-.4-.8-1.5-.8-1.6 0-1.7.3-.7 1.1.7.5 1.5 1.9 1.6 2.9.3 1.8.2 1.9-1.5.5-1.6-1.3-1.7-1.2-.5.3.9 1.1 1 1.8.2 2.3s-.8 1 0 2c.8.9.6 1.7-.5 2.9-.9.9-1.2 1.6-.6 1.6 1.4 0 3.2-3.5 2.3-4.5-.4-.5-.2-.5.5-.1.9.5 1 1.3.1 3.1-.6 1.4-1.4 2.5-1.8 2.5s-.7.6-.7 1.2c0 .7-1.2 3.9-2.7 7-1.4 3.1-2.6 6.2-2.6 6.8s-.5.8-1.2.4c-.6-.4-.8-.3-.5.4.8 1.1-3.2 12.5-4.5 13-.5.2-.6.8-.2 1.3.3.5 0 .9-.6.9s-.8.4-.5 1c.3.5 0 2-.7 3.2-.6 1.3-1.3 2.9-1.4 3.7-.2.8-.8 1.7-1.4 2.1s-1 1.1-.9 1.6c.4 2.5-.2 4.5-1.3 3.8-.7-.4-.8-.3-.4.4.8 1.3-2.1 10.7-3.8 12.5-.6.7-1.2 2.5-1.4 4.2-.4 3.8-.8 4.1-2.9 2.4-1.7-1.3-1.7-1.3 0 .7 1.9 2.3 1.4 4.9-1.2 7.2-.9.8-1 1.1-.3.7.6-.3 1.2-.1 1.2.4 0 .6-.5 1.1-1.1 1.1-.5 0-.7.4-.4 1 .3.5-.1 2.3-1 4-.8 1.6-1.5 3.2-1.5 3.5s0 .6-.1.7c0 .2-.2 1.2-.3 2.3-.5 4.3-5.1 20.3-5.7 20-.3-.3-.4.7-.1 2.2.3 1.8.1 2.4-.6 1.9-.7-.4-1-.2-.6.7.2.7 0 3.6-.6 6.3-.7 2.7-1.3 5.8-1.5 6.9s-.6 3.1-.9 4.5c-.2 1.4-1 4.7-1.6 7.5-1.6 7-1.6 6.8-3.9 18.5-1.1 5.8-2.3 13.2-2.6 16.5s-.8 7.6-1 9.5c-.3 1.9-.4 5.7-.4 8.3 0 2.7-.4 4.7-.8 4.4s-.9 4.5-1 10.7c-.1 6.1-.5 13.3-.8 16.1-1.1 8.1-1.4 82.3-.4 90.5.5 4.1 1.1 12 1.4 17.5.8 14.4 1.5 21.3 3 29.2.4 2.4.2 3.3-.7 3.3-1 0-1 .2 0 .8.7.5 1.5 3.7 1.7 7.3.3 3.5 1.3 10.4 2.2 15.4.8 4.9 1.7 10.8 1.9 13 .1 2.2.3 4 .4 4 .2 0 .8 3.2 1.5 7.5.3 1.9 1 6 1.6 9s1.2 7.1 1.3 9.2c0 2 .4 3.4.7 3.2.6-.3 1.6 3.9 3.4 13.6.1.8.5 2.3.9 3.2s.5 2.1.2 2.7c-.3.5-.2 1.1.4 1.3.5.1 1.1 1.9 1.4 3.8.5 3.5 5.3 19.7 7.6 25.5.6 1.6 1.2 3.2 1.2 3.5s.4 1.5.9 2.8c.5 1.2.8 2.6.7 3s.6 2.4 1.5 4.5 1.8 5 1.9 6.5c.2 1.5.6 2.9.9 3.2.7.6 4.9 12.9 5.3 15.5.2 1.1.6 2.8 1.1 3.7.4 1 .8 2.9.9 4.2 0 1.3.3 2.2.5 2 .3-.2 1.9 4 3.7 9.3 1.7 5.4 4.3 12.7 5.8 16.2 1.4 3.5 2.3 6.7 2.1 7.1-.3.4.2 1.1 1.1 1.4.8.3 1.4 1.1 1.2 1.8-.1.7.3 2.3 1 3.6.7 1.2 1 2.6.7 3.1s-.2 1.1.3 1.3c.8.3 6.2 13.7 6.2 15.5 0 .6.7 1.9 1.6 2.8.9.8 1.7 2.6 1.8 3.9 0 1.3.5 2.2 1 1.8.5-.3.7.5.4 1.6-.4 1.2-.2 2 .2 1.7 1.2-.7 2.3 3.2 1.4 4.7-.4.7-.4 1 .1.6.4-.4 3.8 5.2 7.5 12.5s8.6 16.7 10.9 21 3.6 7.5 3 7.1c-.8-.4-.9-.3-.5.4s1.4 1.2 2.2 1.2c1.3 0 1.8 1.2 1.5 3.2 0 .5.4.8 1 .8.5 0 .7.4.4 1-.3.5-.2 1 .4 1 .5 0 2 1.7 3.2 3.7 1.3 2.1 2.6 3.9 3 4.1s.5 1.2.2 2.2c-.3 1.2 0 2 .6 2 .7 0 .9-.5.6-1-.3-.6-.4-1-.2-1 1.1 0 5.8 8.3 5.3 9.5-.3.9 0 1.2 1 .8.7-.3 1.4 0 1.4.6 0 .5 1.4 2.6 3.1 4.6 1.7 1.9 2.8 3.5 2.5 3.5s1.2 1.9 3.4 4.2c2.2 2.4 4 4.6 4 5s1 1.8 2.2 3c4.4 4.5 9.3 11.2 9.2 12.5-.1.7.2 1.1.6.8.4-.2 1.6.5 2.6 1.7 1.1 1.2 1.3 1.8.5 1.3-1-.5-1.2-.4-.7.3.4.7 1.4 1.2 2.2 1.2s1.4.4 1.4 1c0 .5-.8.7-1.7.4-1.5-.5-1.5-.4-.3.4.8.6 1.7.9 2.1.6 1.1-.7 2.1 1.4 1.3 2.7-.4.8-.9.7-1.5-.2-.5-.8-.9-.9-.9-.3 0 1.8 1.3 2.4 2.7 1.3 1.5-1.3 4.3.4 4.3 2.7 0 .8.6 1.3 1.3 1.2.6-.2 1.1.3.9 1-.1.8.2 1.1.6.8.5-.3 2.7 1.5 4.8 4.1 2.2 2.6 4.4 5.1 4.9 5.7.6.6 2.2 2.7 3.6 4.6 1.5 1.9 4.3 5.3 6.3 7.5s3.6 4.9 3.7 6v2l.9-2c.8-1.9.9-1.9.9.2.1 1.7.6 2.1 1.9 1.7 1.5-.5 1.5-.4.1.8-.9.7-2.1 2.3-2.8 3.6-1 1.8-.9 2.3.4 2.8.8.3 1.2 1.1.8 1.7s-.1.7.8.2c3-1.7 4.8-3.8 4.2-4.9-.4-.7-.1-.7.7.1 1 .9.9 1.7-.8 3.8-1.1 1.4-2.4 2.5-2.9 2.5-.4-.1-.9.4-1.1 1.2-.2.9 0 .8.7-.2.6-.8 1.1-1.1 1.1-.5 0 .5 1.4-.6 3-2.5s3-3 3-2.3.9 2.1 2 3.1l2 1.9-2 2.6c-1.9 2.3-4.1 9.1-2.5 7.6.3-.4.8-1.7 1-2.9.2-1.3 1.2-3.1 2.1-4.1 1.4-1.5 1.8-1.6 3-.4 2 1.9 1.7 2.4-.8 1.8-2-.4-2.1-.3-.5.7.9.6 2.2.8 2.7.5s2 .4 3.2 1.6c1.3 1.2 1.8 1.9 1.1 1.5s-.9.1-.5 1.6c.3 1.2.7 1.7 1 1 .2-.6.8-1.2 1.3-1.2.4 0 .6.6.3 1.4s0 1.7.7 2.2c.8.5 1 .3.4-.7-.4-.8.4-.3 1.7 1.1 1.4 1.4 4.4 4.2 6.7 6.3s3.8 4.3 3.5 4.9c-.5.7-.2.9.8.6 1.4-.6 4.5 2.8 4 4.5-.1.5.1.6.6.3 1-.6 5.8 4.4 5.4 5.7-.1.4.2.6.6.5 1.2-.4 7.2 5.4 7.2 6.9 0 .6.5 1.5 1.2 1.9.8.5.9.2.4-1.2s.1-1.1 2.6 1.1c10 9 10.8 9.9 9.5 10.8-.7.5-.4.6 1.1.2 2-.6 2.7.2 2.3 2.7 0 .4.6.5 1.3.2.9-.3 2.4.9 3.9 3.1 2.4 3.5 2.5 4.3 2.6 20.8 0 9.5.3 18.3.6 19.7.2 1.4.6 3.7.9 5.2 1.2 7.3 7.5 17 15.8 24.7 2 1.9 3.4 3.9 3.1 4.5s-.3.8.2.4c.4-.4 2.7.9 4.9 3 2.3 2 5.8 5.1 7.9 6.8 2 1.7 3.3 3.5 2.9 3.9-.4.5-.2.5.5.1 1.4-.7 8.5 3.2 7.8 4.4-.3.4.5.6 1.7.2 1.6-.4 2-.2 1.5 1-.4 1.2-.1 1.4 1.4 1.1 1-.3 1.9 0 1.9.6s.9 1.1 2 1.1c2.3 0 2.5 1 .8 3-.7.8-.9 1.2-.4.8s1.7.3 2.8 1.5l2 2.2-1.6-2.7c-1.6-2.7-1.6-2.8.6-2.4 1.3.3 2.6.5 3.1.5.4.1.7.9.7 1.8 0 1.5-.2 1.4-1.6-.3-1.5-1.8-1.5-1.8-.5.2.6 1.2.7 2.4.4 2.8-.3.3-.1.6.6.6s.9.5.5 1.1c-.4.8 0 .7 1.5-.1 1.8-.9 2.1-3 .5-3-.3 0-.2.4.1 1 .3.5.1 1-.4 1-1.3 0-1.4-1-.1-3 .6-1 1-1.1 1-.3 0 .7.9 1.3 2 1.3s2 .5 2 1.1c0 .5-.6.7-1.3.3-.9-.6-.9-.4-.1.7.6.8 1.4 2.1 1.8 2.9.3.8.4.5.2-.7-.2-1.3 0-2.6.5-2.9s.9.2.9 1c0 .9.8 1.6 1.8 1.6 1.5 0 1.5-.2.2-1.1s-1.3-1 0-.5c.8.3 2.3.9 3.3 1.2.9.4 1.7.9 1.7 1.3s.8.7 1.8.8c.9.1 3.4.9 5.4 1.7 2.1.9 4.1 1.7 4.5 1.8.5 0 1.4.8 2.1 1.7.8.9 1.1 1.1.7.4-.4-.9.1-1 2.5-.1 2.3.7 3 1.5 2.5 2.7-.5 1.3-.4 1.4.6.4 1.6-1.6 3.3-1.7 2.3-.1-.4.7-.3.8.5.4.6-.4 2.5-.2 4.1.6 2.5 1.1 2.9 1.7 2.4 4.3-.3 1.6-.2 2.7.1 2.4.3-.4.8-1.7 1-2.9.5-2.6 1.5-4 1.5-2.1 0 .7.6 1.1 1.3.8 1.9-.7 4.5 1.1 3.1 2.1-.6.4-.4 1.3.8 2.5 1 .9 1.8 1.3 1.8.8 0-.6-.5-1.3-1-1.6-1.2-.7-.4-2.5 1.1-2.5.6 0 .8.4.5.8-.2.4-.1 1.4.5 2.2.7 1.2.9 1.2.9-.4 0-1.3.4-1.6 1.8-1.1.9.4 2.7 1 3.9 1.2 1.3.3 2 .9 1.7 1.4-.3.6.6.8 2 .5 2-.4 2.6 0 2.6 1.2 0 1.3.2 1.4.9.3.6-.9 1.6-1.1 3.2-.5 1.3.4 2.7.7 3.2.6.4-.1.7.3.7.9 0 .5.4.8.9.4 1.5-.9 42.1 9.7 41.4 10.8-.3.6-.1.7.5.3.6-.3 3.2-.1 5.9.5 2.6.6 5.5 1.2 6.3 1.4s3 .4 4.8.4c1.8.1 3.1.4 2.9.8-.6.9-.2.9 16.3 1.3 6.3.2 14.4.6 18 1.1 3.6.4 9 1.1 12 1.4 12.4 1.3 14.7 1.6 20 2.5 3 .5 17.2 1.2 31.5 1.5 14.3.4 28 .9 30.5 1 24 1.7 46.1 2 143 1.8 63.2-.1 123.4-.7 139-1.3 56-2.3 64.6-2.8 68-3.9 1.9-.6 6.2-1.1 9.5-1.1 3.4 0 10.1-.9 15-1.9 5-1.1 14-2.4 20-3.1 6.1-.6 16.2-1.9 22.5-3 10.2-1.6 16.4-2.4 25-3.3 1.4-.1 2.8-.6 3.1-1 .3-.5 2.2-.9 4.2-1s3.7-.6 3.7-1.1c0-.4 1.1-.6 2.5-.4 1.3.3 2.2.2 2-.2-.3-.4.6-1 2-1.2 1.4-.3 2.2-.1 1.8.4-.3.6.6.2 2.1-.7 1.4-.9 3.3-1.5 4.1-1.1.8.3 1.5.1 1.5-.5s.7-.9 1.5-.5c.8.3 1.5.1 1.5-.3 0-.5.8-.8 1.8-.6.9.1 2.2-.1 2.7-.5 1.5-1.1 9.8-2.9 10.7-2.4.4.3.8 0 .8-.5 0-.6.4-1.1 1-1.1.5 0 .7.8.4 1.7-.2 1 0 .9.7-.4.6-1.2 1.9-2.3 2.8-2.6s2.5-.8 3.5-1.3c1.2-.4 1.7-.4 1.3.2-.3.6-.1 1.6.5 2.4.8 1.3.9 1.3.5-.1-.7-2.1.8-4.3 2.2-3.5.6.4.9 1.1.7 1.5-.3.4.2.8 1 .8 1 0 1.1-.4.4-1.1-1.7-1.7-1.1-2.9 1-2.3 1.3.3 1.8.1 1.3-.6-.4-.6.2-.8 1.5-.5 1.2.3 2.3.1 2.4-.4.4-1 13.1-5.9 15.6-6.1.6 0 1.2-.4 1.2-.8 0-.7 4.9-2.4 6.3-2.1.4.1.7-.3.7-.8 0-.6.6-1 1.3-1s3.1-.9 5.3-1.9c2.1-1.1 4.2-1.7 4.6-1.4.5.2.8-.1.8-.8 0-.6.8-.9 2-.6 1.1.3 1.8 0 1.7-.7-.1-.6.8-1.1 2-1 1.2 0 2.1-.2 2-.5s0-.6.3-.6 1.6-1 2.9-2.2 2.7-2 3.1-1.8c.4.3 1.3-.1 1.9-.9.7-.8 2.3-1.7 3.6-2 1.4-.4 2.5-1.1 2.5-1.6 0-.6.6-1 1.4-1 .7 0 1.9-.7 2.6-1.5.7-.9 1.5-1.3 1.8-1s1.1-.4 1.9-1.5 1.8-2 2.4-2c.5 0 1.7-.8 2.7-1.7 8.6-8.2 13.8-12.7 14.5-12.5.5.1.6-.2.3-.7-.4-.5 0-1.3.7-1.8 2-1.2 10.6-14 11.3-16.9.3-1.3.9-2.4 1.3-2.4.3 0 .6-1 .7-2.3 0-1.2.4-4.2.8-6.7.6-3.7.8-9.4.5-17 0-.8.1-4 .3-7.1.2-3 .1-6.6-.2-8-.7-2.5 1-6.1 4.2-9 1-.9 1.5-1.9 1.1-2.3-.3-.3-.1-.6.6-.6.6 0 2.6-1.4 4.4-3 1.8-1.7 4.3-4 5.6-5.3 1.3-1.2 2-1.5 1.6-.7s1-.4 3.2-2.8c3.8-4 4.1-4.1 4.6-2 .6 2.1.7 2.1 2.5.5 1-.9 2.2-1.4 2.5-1 .4.3.7.1.7-.5 0-1.6-1-1.5-3.2.5-1.7 1.5-1.8 1.5-1.8-.3 0-2.6 6.4-8.9 8.1-7.9.8.5 1 .4.5-.4-.8-1.3 5.3-8.3 6.6-7.5.4.3.5-.1.2-.9-.4-1.1.2-1.4 2.8-1.1 2.3.3 2.9.1 1.8-.5-.8-.6-1.8-.7-2.2-.5-1.9 1.2-.5-1.5 2.1-4 2.4-2.4 3.2-2.6 5-1.7 1.4.8 2.1.8 2.1.1 0-.5-.7-1-1.5-1-1.6 0-2.1-1.6-.7-2.2.5-.2 3.2-2.9 6-6.1 2.9-3.1 5.2-5.4 5.2-5s.7-.3 1.6-1.5c.8-1.2 1.9-2 2.4-1.7s1.2 0 1.6-.6c.4-.8.3-.9-.4-.5s-1.2.2-1.2-.3c0-.6.5-1.1 1-1.1.6 0 1-.6 1-1.3 0-.8 1.1-2 2.5-2.7s2.5-1.7 2.5-2c0-.4 3.3-4.2 7.3-8.4s7.1-7.9 6.8-8.3c-.3-.3 0-.3.7.1s1.2.1 1.2-.8c0-.8 1.2-2.4 2.6-3.5 1.5-1.2 2.4-2.1 2-2.1s-.1-.6.6-1.4 1.6-1.2 2.1-.9c.4.2.7-.3.7-1.1s1-2.5 2.3-3.8c1.5-1.6 1.7-1.7.7-.3-1.5 2-1.5 2 .7.2 1.2-1.1 1.9-2.5 1.6-3.3s0-1.4.6-1.4 1.1.5 1.1 1.1c0 .5.5.7 1.1.3.8-.4.7-.9-.2-1.4-.9-.6-.9-1.2.4-2.5 1-.9 1.7-1.2 1.7-.6s.4 1.1.9 1.1.8-.8.7-1.7c-.3-2.2 2.9-5.7 4.3-4.9.7.4.9.1.5-.8-.3-.9.3-2 1.5-2.8 1.2-.7 2.1-1.7 2.1-2.2 0-.7 8.6-11.4 11.4-14.1.6-.6 1.6-1.9 2.3-3 .6-1.1 1.6-1.9 2.3-1.7.6.1.8-.2.5-.8-.8-1.3 2.4-5.2 3.6-4.5.4.3 1.1 0 1.5-.6.4-.8.3-.9-.4-.5s-1.2.2-1.2-.4.7-1.3 1.5-1.6c.8-.4 1.5-1.1 1.5-1.6 0-.6 1-2.3 2.3-3.8 1.2-1.5 2.9-3.7 3.7-5 .8-1.2 2-2.8 2.6-3.4.6-.7 1.8-2.5 2.7-4.1.8-1.7 2.5-4 3.7-5.3 1.1-1.2 1.8-2.2 1.5-2.2s.2-1.1 1.1-2.5 2.1-2.2 2.7-1.8.8 0 .4-1c-.6-1.6 6.3-14.1 9.2-16.5.9-.8 1-1.1.4-.7-.9.4-1.1.1-.7-.9.3-.9 1.1-1.3 1.7-.9.6.3.7.1.3-.5s1.1-4.3 3.3-8.1c2.1-3.8 4.2-7.9 4.6-9.1.5-1.5 1.2-1.9 2.3-1.5 1.3.5 1.4.3.6-.5-1.3-1.3.3-7 1.9-7 .4 0 .6-.4.2-.9-.3-.5.1-1.6.9-2.4s1.3-1.7 1-2c-.3-.2.8-3.3 2.4-6.8s4.2-9.7 5.7-13.7c1.5-3.9 3.2-7.2 3.6-7.2s.5-1 .1-2.2c-.4-1.7-.2-2 1.1-1.5.9.3 1.9.2 2.2-.4.4-.5.1-.8-.7-.7-1.6.4-1.6.4 2.9-11.7 2.1-5.5 4.4-10.6 5.3-11.3.8-.8 1-1.1.4-.8-.8.4-.8-.6 0-3.5.6-2.5 1.5-3.8 2.3-3.5.7.3 1.3.1 1.3-.3 0-.5-.5-1.1-1.2-1.3-.7-.3-.8-.9-.3-1.9.5-.8 1-2 1.1-2.7.2-.8.6-2.1 1-3 .9-2.2 1.1-2.9 1.3-4.8 0-.8.5-1.3 1-1 .4.3.6-.6.3-1.9-.2-1.4 0-2.5.6-2.5.5 0 .9-.6.9-1.3-.2-1.4 3.5-12.9 4.3-13.7.3-.3.5-1.2.6-2 .1-1.8 7.7-25.3 8.4-26 .3-.3.5-1 .5-1.5 0-3.1 4.9-19.4 5.6-18.9.5.3.6-.2.3-1-.6-1.5 1.2-11 2.4-13.1.3-.5.7-1.6.8-2.5.7-5.1 3.7-18.6 4.3-19 .3-.3.7-3 .9-6 .3-4.6 2.9-20.8 5.9-36 .3-1.9.6-5.4.6-7.8-.1-2.5.4-4.2 1.1-4.2s.6-.4-.3-.9c-.9-.6-1-1.4-.4-2.7.5-1.1 1.1-4.1 1.2-6.9.2-2.7.5-5.3.7-5.6.3-.6 1-7.6 1.9-21.3.3-3.4.9-11.2 1.3-17.5 1-12.9.8-75.8-.2-89.6-.4-5-.9-11.9-1.1-15.5s-.5-6.5-.5-6.5c-.6 0-1.2-5.7-1.5-14-.4-9.4-.7-12.7-1.9-20-.3-1.7-.7-4.4-1-6-.2-1.7-.9-5.3-1.6-8-.6-2.8-1.3-5.9-1.6-7-.2-1.1-2-8.9-3.9-17.4s-3.3-15.6-3-15.9 0-1.1-.6-1.8c-.6-.8-.9-2.1-.5-2.9.3-.8.2-1.5-.2-1.5s-1.3-1.9-1.9-4.2c-4.3-15.4-6.2-23.2-5.7-23.9.3-.5 0-.9-.5-.9-1.2 0-1.5-2.6-.3-3.3.4-.2.2-.3-.4-.1-1 .2-2.5-3.7-2.8-7.1-.1-.6-.5-1.3-1-1.7-.5-.3-.9-2-.9-3.7 0-1.6-.3-2.8-.7-2.6-.8.5-4.2-9.5-3.8-10.6.2-.3-.3-1.3-1.1-2.2-.7-.9-1.1-2.4-.7-3.2.3-.9.2-1.4-.3-1.1-1 .6-5.3-9.2-4.6-10.4.3-.5.1-1-.4-1.2-.5-.1-3.2-6.2-6.1-13.3-2.8-7.2-5.6-13.6-6.2-14.2-.6-.7-.7-2.1-.4-3 .4-1 .4-1.4 0-1-.4.3-1.6-1-2.7-3.1-1.1-2-3-5.6-4.3-8-1.3-2.3-2.4-5.1-2.4-6.2 0-1-.8-2.4-1.7-2.9-1.6-1-1.6-1.2-.3-2.4 1.6-1.3 2.6-4.2 1.1-3.3-.5.3-1.4-.1-2.1-.9-1.1-1.3-1-1.4.6-.9 1.4.4 1.6.3.5-.4-.8-.6-1-1.5-.6-2.2.5-.8.4-1.1-.1-.7-.6.3-1.6-.8-2.3-2.4-.7-1.7-1.7-2.6-2.4-2.2-.8.5-.8.8.1 1.1.7.2.9.9.6 1.4-.5.7-.2.8.6.3s1.1-.4.6.3c-.3.6-.2 1.3.3 1.6s.7 1.5.4 2.6c-.3 1.2.1 2.2 1.1 2.6.9.3 1.3 1 1 1.6-.8 1.2-3.3-2.3-3.7-5.2-.2-1.2-.9-2.5-1.6-2.9-.7-.5-1.3-1.2-1.3-1.7s-.4-.8-.9-.6c-.5.1-.9-.3-.9-.9s.6-.9 1.3-.6c.6.2 1.8-.2 2.5-.9 1-1.1.7-1.3-1.8-.8-3.2.7-3.8-.3-1.7-2.5 1-1.1 1-1.3 0-.7-.8.4-1.3.2-1.3-.5s-.3-.9-.6-.6c-.4.4-1.6-1-2.7-3.1-1-2-3.2-5.7-4.9-8-1.6-2.4-3-4.9-3.1-5.5-.1-.7-.9-1.8-1.7-2.5-1.3-1.2-1.3-1.3 0-.7 1.2.5 1.2.4-.1-.7-1.8-1.5-4.4-6-4.1-7.1.1-.4-.3-.7-.9-.7-.5 0-.8-.4-.5-.9s-.1-1.1-.9-1.5c-.9-.3-1.2-1.2-.8-2.2.4-1.2.3-1.5-.5-1-.7.4-1.2.1-1.2-.8 0-.8-.3-1.6-.8-1.8-1.2-.5-7.2-8.5-7.2-9.6 0-.6-.6-1.3-1.2-1.5-1-.4-1-.6 0-.6.6-.1 1.2-.6 1.2-1.2s-.6-.9-1.4-.6c-1.5.6-4.6-2.6-4.6-4.9 0-.8-.4-1.3-.9-1s-2.5-1.4-4.6-3.9c-2-2.5-3.3-4.5-2.9-4.5s-.3-.8-1.4-1.9c-2.7-2.2-2.8-3.2-.4-2.6.9.3.4-.1-1.2-.8-2-1-2.5-1.6-1.5-2 1.1-.4 1-.6-.3-.6-.9-.1-3.3-2.1-5.3-4.5-3.2-3.9-3.5-4.8-2.5-6.8 1-2.1 1-2.1-.3-.5-1.4 1.7-1.6 1.6-4.1-1.5-1.5-1.8-3.8-4.6-5.1-6.2-1.8-2.2-2.3-3.8-2-6 .4-2.2.3-2.7-.4-1.6-.5.8-.7 1.8-.5 2.2 1 1.6-1.3.7-3-1.1-1-1.1-1.5-2.5-1-3.2.4-.7.3-1-.3-.6-1.2.7-4.4-2.8-3.5-3.9.4-.4.2-.4-.5-.1-1.3.8-8.5-7.1-7.7-8.5.3-.5.1-.7-.4-.6-1.4.4-10.4-9.1-9.7-10.3.4-.5.1-.8-.7-.7-.7.2-1.2-.3-1-1 .1-.8-.2-1.1-.8-.7-.5.3-1.4-.5-2-1.9-.5-1.4-1.2-2.6-1.5-2.6-.4 0-.3.6.1 1.2.4.7-.9-.3-2.9-2.1-2.1-1.9-3.7-4.1-3.7-4.9 0-.7-.4-1.1-.8-.8-1 .6-9.2-7.7-9.2-9.3 0-.7-.4-.9-1-.6-.5.3-1-.2-1-1.1 0-1-.3-1.5-.6-1.2-1 1-9.7-8-9.1-9.5.3-.7-.1-1.4-.9-1.4-.7 0-1 .5-.7 1.1s-.8-.2-2.5-1.8c-1.8-1.7-3.2-3.5-3.2-4 0-.6.9 0 1.9 1.3 1.5 2 2.1 2.2 3.7 1.2 1.8-1.1 1.7-1.1-.3-.6-2.4.7-3.3-1-1-1.8.6-.2.4-.3-.5-.2-2.2.4-2.3-.9-.2-2.9.8-.9 1.1-1.6.5-1.6-1.2 0-4.3-5.5-3.5-6.3.3-.3-.6-.4-2-.3-2.9.4-3.4-.8-1.1-2.2 1.3-.7 1.1-1-1-2-1.9-.9-2.4-.9-1.9-.1 1 1.6 1.2 8.9.2 9.5-.9.6-1 .3-1.3-4.9-.1-2-.5-4-.8-4.3-.3-.4-.2-1.4.3-2.4.6-1.2.5-1.7-.5-1.7-.8 0-1.1.7-.8 1.6.5 1.2.1 1.1-1.4-.4-1.1-1.1-1.9-2.8-1.7-3.8s-.1-1.5-.6-1.2-1.3-.3-1.9-1.2c-.6-1-1.1-1.2-1.1-.6 0 .7-.5 1.3-1.1 1.3s-.8-.7-.5-1.6.2-1.2-.5-.9c-.6.4-.8 1.3-.5 2.1.4 1-.1 1.3-1.6 1-1.2-.1-2.4-.8-2.6-1.4-.2-.7.3-1 1.2-.6 1.4.6 2.1-.5 1.7-2.9-.1-1 .7-.9 3.2.4 2.2 1.1 2.2 1.1-.1-1-1.2-1.2-1.9-2.7-1.5-3.3.4-.8.9-.5 1.4.8.5 1.4.7 1.1.6-1.3 0-1.8-.6-3.4-1.4-3.8-1.8-.6-3.5.3-2.8 1.5.3.5.1 1.1-.5 1.5-1.4.9-1.3-2.8.2-4.3.8-.8 1.7-.8 3.2-.1 1.6.8 1.6.6-.4-1-2.7-2.2-2.1-2.7 1.3-1 2 .9 2 .9.5-.4-1-.8-1.8-2-1.8-2.8 0-1.1.2-1.1 1.1.1.9 1.3 1 1.2.5-.2-.3-1-.1-2 .5-2.4s.6-1.1-.2-2c-.6-.7-1.5-1.1-2.1-.8-.5.3-1.9-.1-3.1-.9-2-1.3-2.2-1.3-2.3.8-.1 1.5.6 2.7 2.2 3.4 1.3.6 2.4 1.6 2.4 2.2 0 .7-1.1.4-2.7-.7-2.2-1.4-2.5-1.4-1.5-.2 1 1.3 1 1.7 0 2.1s-1 .6.1.6c1.1.1 1.1.4 0 1.8-1.1 1.5-1.1 1.6.1.5.8-.6 1.9-1.2 2.5-1.2.5.1.1.8-1 1.8-2.6 2.2-2.5 4.4.3 6 2.1 1.2 2.2 3.2.1 3.2-.6 0-.7-.5-.3-1.2.4-.6.3-.8-.4-.4-.5.3-1.3 0-1.5-.6-.3-.7-.4.2-.2 1.9.2 1.8 0 3.3-.4 3.3s-.7-7.4-.7-16.5c.1-15.3.5-18.8 2-15 .3.8 1.1 1.5 1.7 1.5.7 0-.2-1.3-2.1-3-2.9-2.6-3.1-3.1-1.9-4.7.9-1.1 1-1.4.2-.9-.9.5-1.3.1-1.4-1.1 0-1-.2-2.7-.4-3.8s-.6-3.7-1-5.8c-.3-2.1-1.2-4.9-2.1-6.2s-1.2-3-.8-3.6c.4-.8.3-.9-.4-.5s-1.2.1-1.2-.7-.7-1.7-1.5-2.1c-.8-.3-1.5-1.2-1.5-2 0-.7-.7-1.6-1.5-2-.8-.3-1.5-1-1.5-1.6s.5-.8 1-.5c.6.3 1 .1 1-.5 0-.7-.6-1-1.4-.7-1.6.6-4-1.6-2.9-2.7.4-.4 0-.4-1 0-1.5.6-2.2-.4-1.8-2.8 0-.4-.6-.5-1.4-.2-1.5.6-2.2-1.1-.7-1.9.4-.2.1-.2-.6-.1-.7.2-1.5-.3-1.8-1.1-.4-.8-1.2-1.5-1.9-1.5-.8 0-1.7-.9-2-2s-1.1-2-1.6-2c-.6 0-.7-.5-.3-1.2.5-.7.2-.9-.8-.5-1.8.6-5.2-2.5-4.1-3.8.5-.4.2-.5-.4-.1-.7.4-1.3.2-1.3-.3 0-.6-.3-1-.7-.9-1.6.4-9.3-4.7-9.3-6.2 0-1.3-.1-1.3-1 0s-1.4.7-1.1-1.2c0-.4-.7-.4-1.6-.1-1.2.5-1.4.3-.8-.7.5-.8.4-1.1-.3-.6-1.4.8-6.3-1.4-5.6-2.6.3-.5.2-.8-.3-.7-1.9.5-6.2-1.4-5.6-2.4.3-.5.2-.7-.4-.4-.8.5-13.3-3.7-21.8-7.3-6.2-2.7-44.3-11-50.2-11-1.3 0-2.3-.3-2.3-.8 0-.4-2.6-.8-5.8-1-3.1-.1-5.8-.7-6-1.2s-.9-.7-1.7-.4c-.7.3-4.2-.1-7.7-1-7.2-1.7-12-2.4-23.3-3.6-4.4-.5-9.1-1.1-10.5-1.5-1.4-.3-6.8-.8-12-1-5.2-.3-12.6-.8-16.5-1.1-12.3-1.1-13.8-1.2-27.5-1.8-7.4-.4-14.8-.9-16.5-1.2-3.3-.6-17.8-1.2-30.3-1.3-6-.1-8.1-.4-7.6-1.3.5-.7.3-.8-.7-.3-.7.5-2.9.8-4.9.7-1.9-.1-8.9-.3-15.5-.4-7.2-.1-12.3-.6-12.7-1.2-.5-.8-.8-.7-.8 0 0 .8-2.2 1.1-6.7.8-14.7-.8-40.6-1.4-78.8-2-22-.3-40.5-.7-41.2-.9-.6-.2-1.3-.2-1.5-.1zm469.8 123.7c.5.8.9.8 1.4-.1.5-.8 1-.8 1.4-.2.3.5-.1 1.5-.9 2.2-1 .9-1.5.9-1.5.1 0-.6-.6-1.1-1.4-1.1s-1.8-.5-2.1-1c-.3-.6.1-1 .9-1s1.8.5 2.2 1.1zm1.8 11.8c.3.5-.1 1.4-.9 2.1-1.1.9-1.4.8-1.2-.9.1-2.2 1.2-2.8 2.1-1.2zm-2.4 7.5c0 1.1-1.9 1.5-2.5.6-.3-.5.1-1 .9-1 .9 0 1.6.2 1.6.4zm-.5 6.6c.3 0 .4-.4.1-.8-.7-1.1 3.1-.8 4.1.3.5.4.2.5-.4.1-.8-.5-1.1-.2-.7.7.4 1.1-.2 1.4-2 1.2-1.5-.2-2.4.1-2.1.5.3.5 1.3.7 2.3.4 1.5-.5 1.5-.4.2.6s-1.2 1.1.4.6c1.3-.5 1.7-.2 1.3.8-.6 1.4 1.6 1.6 2.9.3.9-.8 2.4.1 2.4 1.4 0 .6-.4.8-.8.5-.4-.2-1.4-.1-2.1.3-.9.6-1 1.1-.2 1.5.6.4 1.1.3 1.1-.3 0-.5 1.1-.8 2.6-.6l2.5.2-2.2-2.3c-1.5-1.7-2.6-2.1-3.4-1.4-.9.7-1.2 0-1.2-3 0-3.2.3-3.8 1.3-2.9.8.6 1.1 1.5.8 2s.7 2 2.1 3.3c2.6 2.4 4 7.2 2.4 8.2-.4.2-.1 1.3.8 2.3 1.9 2.3 4.6 1.6 3.8-.9-1.1-3.4 2.3-3.1 4.3.4l1.9 3.2-4.3.1c-3.9.1-4.8-.5-11.8-6.8-4.1-3.8-8.2-8.4-9-10.1-2.1-4.1-2-4.8.3-2.1 1.1 1.3 2.2 2.3 2.6 2.3zm21.1 18.3c.4.4 0 .7-.9.7s-2 0-2.4.1c-.4 0-.9-.4-1.1-.9-.3-1 3.4-.9 4.4.1zm-1058.3 972.7c.6 2.4-1.6 4.5-3.7 3.3-1.4-.8-1.4-1.1 0-3.1 1.9-2.7 3-2.8 3.7-.2z"/><path d="m1232.1 212.7c1.3 1.5 3.1 1.4 3-.2 0-.6-1-1.1-2.1-1.1-1.6-.1-1.8.1-.9 1.3zm9.9 2c.5.2.8.9.4 1.4-.3.5 0 .9.6.9 1.5 0 .7-2.3-.8-2.6-.7-.1-.8 0-.2.3zm-1057.4 980c-.6 1.4-.5 1.5.5.6.7-.7 1-1.5.7-1.8s-.9.2-1.2 1.2zm1004.9-1094.8c-.3.5-.2 1.2.3 1.5s.9-.1.9-.9c0-1.7-.3-1.9-1.2-.6zm-916.5 4c0 .6.4 1.3 1 1.6s.7-.1.4-.9c-.7-1.8-1.4-2.1-1.4-.7zm914 .1c0 .5.5 1 1 1 .6 0 1-.5 1-1 0-.6-.4-1-1-1-.5 0-1 .4-1 1zm8 2.3c0 .2.6 1 1.4 1.6 1.1.9 1.6.9 2.2-.1.4-.7.4-1-.1-.6-.4.4-1.4.3-2.2-.3-.7-.6-1.3-.9-1.3-.6zm4.3 6.1c.3.8.1 1.7-.6 1.9-.7.3-.2.4 1 .4 1.5-.1 1.9-.5 1.3-1.3-.6-.6-.7-1.4-.3-1.7.3-.4.1-.7-.6-.7s-1.1.6-.8 1.4zm-4.6 1.7c.7.7 1.5 1 1.8.7s-.2-.9-1.2-1.2c-1.4-.6-1.5-.5-.6.5zm10.8-.4c.3.3 0 1.1-.5 1.8-.7.8-.5 1.2.4 1.2 1.4 0 1.6-2.2.3-3.2-.4-.3-.5-.2-.2.2zm-6.7 4c.7.3 1.6.2 1.9-.1.4-.3-.2-.6-1.3-.5-1.1 0-1.4.3-.6.6zm4 .8c.5 1.1.7 2.6.5 3.2-.3.7.1 1.3.8 1.3s.9-.3.6-.7c-.4-.3.1-1.6 1-2.7 1-1.2 1.1-1.6.4-.9-1.1 1-1.7.9-2.8-.5-1.3-1.6-1.3-1.5-.5.3zm19.1 49.7c1.1 1.5 1.1 1.8 0 1.8-.8.1-.2.8 1.4 1.6 1.8 1 3.3 1.2 4.4.6 1.4-.8 1.4-1-.6-1.7-1.9-.6-2-.9-.9-2.3 1.2-1.5 1.1-1.6-.4-.3-1.5 1.1-2.1 1.1-3.5 0-1.6-1.3-1.7-1.2-.4.3zm4.1 2.8c.8.5 1.1 1 .5 1-.5 0-1.7-.5-2.5-1s-1-1-.5-1c.6 0 1.7.5 2.5 1zm-987 24.9c0 .6.4 1.2.8 1.5.5.3.9-.1.9-.9s-.4-1.5-.9-1.5c-.4 0-.8.4-.8.9zm-4.3 2.2c.7.7 1.5 1 1.8.7s-.2-.9-1.2-1.2c-1.4-.6-1.5-.5-.6.5zm-2.2 3.9c-.3.6.1.7.9.4 1.8-.7 2.1-1.4.7-1.4-.6 0-1.3.4-1.6 1zm4.5.9c0 .7-.4.9-1 .6-.6-.4-.7.1-.3 1.1.6 1.5.7 1.5 1.5-.1.6-.9.7-1.9.4-2.2-.3-.4-.6-.1-.6.6zm-8.5 1.2c-.4.6-.5 1.2-.2 1.5.2.3.7-.2 1-1.1.7-1.7.1-2-.8-.4zm2.6.6c-.1 1.7 1.9 2.7 3.1 1.5.6-.6.6-1.2-.3-1.7-.8-.5-1-.4-.5.3.4.7.3 1.2-.3 1.2-.5 0-1.2-.6-1.4-1.3-.4-.9-.6-.9-.6 0zm-6.1 1.3c-.9.6-1 1-.3 1 .6 0 1.5-.5 1.8-1 .8-1.2.4-1.2-1.5 0zm.7 2.2c-.7.5 0 .6 1.7.4 1.6-.3 3.1-.7 3.3-1 .8-.8-3.7-.2-5 .6zm-2.7.3c0 .5.5 1.7 1 2.5s1 1 1 .5c0-.6-.5-1.7-1-2.5s-1-1.1-1-.5zm4.1 3.1c0 1.1.3 1.4.6.6.3-.7.2-1.6-.1-1.9-.3-.4-.6.2-.5 1.3zm-7.2 1.1c-1.3 1.7-1.3 1.7.6.3 1.1-.8 2.2-1.6 2.4-1.7.2-.2 0-.3-.6-.3s-1.7.8-2.4 1.7zm2 .8c-.1.3-.2.9-.3 1.4-.2 1.5-1.6 2.6-1.6 1.3 0-.7-.5-1.2-1-1.2-.6 0-.5.8.2 2 1 1.6 1.4 1.7 2.1.5.4-.8.7-1.8.7-2.1-.1-.4.4-1.1 1.2-1.5 1-.7 1-.9.1-.9-.7 0-1.4.2-1.4.5zm3.5.3c.3.5 0 1.3-.6 1.5-.9.4-1 .6-.1.6 1.7.1 2.5-1.6 1.2-2.5-.7-.4-.9-.3-.5.4zm-9.1 2.9c.5.7-.1 1.6-1.2 2.3-2.5 1.3-1.6 4.2 1.2 3.8 2.6-.4 3.2-4.1 1-5.9-1-.9-1.4-.9-1-.2zm1.4 3.3c-.1 1.1-.6 2-1.2 2-2.1 0-2.5-1.3-.7-2.6 2.2-1.7 2.1-1.7 1.9.6zm1032.3 0c-.9.6-1 1-.3 1 .6 0 1.5-.5 1.8-1 .8-1.2.4-1.2-1.5 0zm19.6 25.8c-.2.4 0 1.4.6 2.2.8 1.2.9 1.1.4-.3-.5-1.5-.2-1.7 1.7-1.2 1.7.5 1.9.4.7-.4-1.8-1.3-2.7-1.4-3.4-.3zm5.7 6.1c0 1.1.5 1.8.9 1.5s.5-1.1.1-1.9c-.7-2.1-1.2-1.9-1 .4zm2.2 2.2c-.4.6-.4 1.3-.1 1.6.3.4.6 0 .6-.7 0-.9.6-.8 2 .5 1.1 1 2.2 1.6 2.4 1.4s-.6-1.2-1.9-2.2c-1.6-1.1-2.6-1.3-3-.6zm-1108.5 13.9c0 .5.5 1 1.1 1 .5 0 .7-.5.4-1-.3-.6-.8-1-1.1-1-.2 0-.4.4-.4 1zm-2.7 1.5c0 .8.4 1.2.8.9.4-.2 1 .4 1.2 1.3.4 1.5.5 1.5.6.2 0-.9-.5-2.2-1.2-2.8-1-.8-1.4-.7-1.4.4zm-3.7 2.7c.3.5 1 .6 1.5.3 1.3-.9 1.1-1.2-.6-1.2-.8 0-1.2.4-.9.9zm2.9.8c-.3.5-.1 1 .4 1 .6 0 1.1-.5 1.1-1 0-.6-.2-1-.4-1-.3 0-.8.4-1.1 1zm-3.1 1.4c1.1.9 2.4 1.6 3 1.6 1.2 0 .7-.5-2.4-1.9-2.4-1.1-2.4-1.1-.6.3zm-2.9 1.6c.3.5.8 1 1.1 1 .2 0 .4-.5.4-1 0-.6-.5-1-1.1-1-.5 0-.7.4-.4 1zm-3.6 1.7c-.1.5-.1 1.6 0 2.5.2 1.3-.3 1.6-1.6 1.2-1.4-.5-1.5-.4-.3.4 2 1.5 3 .6 2.8-2.3-.2-2.4-.7-3.3-.9-1.8zm5.6.3c-.3.6.1.7.9.4 1.8-.7 2.1-1.4.7-1.4-.6 0-1.3.4-1.6 1zm-2.5 3c0 .5.7.7 1.5.4.8-.4 1.5-.8 1.5-1s-.7-.4-1.5-.4-1.5.4-1.5 1zm-2 3.1c0 .5.5.7 1 .4.6-.3 1-.8 1-1.1 0-.2-.4-.4-1-.4-.5 0-1 .5-1 1.1zm-7 2.8c0 .8-.7 1.1-1.7.6-1.5-.5-1.6-.4-.5.6.9 1 1.5 1 2.4.1.6-.6.9-1.5.5-1.9-.4-.3-.7-.1-.7.6zm1159.8 1.9c.4 1.1.1 1.3-.8.7-.9-.5-1.1-.4-.6.3 1 1.6 1.4 1.5 2.5-.6.7-1.4.6-1.9-.4-1.9-.7 0-1.1.7-.7 1.5zm-1158.8 1.8c0 .8.5 1.2 1 .9.6-.4.8-1.1.5-1.6-.9-1.4-1.5-1.1-1.5.7zm-4.2.1c.7.3 1.6.2 1.9-.1.4-.3-.2-.6-1.3-.5-1.1 0-1.4.3-.6.6zm1167.2.7c0 .2.7.6 1.5 1 .8.3 1.5.1 1.5-.4 0-.6-.7-1-1.5-1s-1.5.2-1.5.4zm-.4 2.5c-.3.5.1 1.4.9 2.1 1 .9 1.5.9 1.5.1 0-.6-.5-1.1-1.1-1.1-.5 0-.7-.5-.4-1 .3-.6.4-1 .1-1s-.7.4-1 .9zm4.3-.4c-.6 2.6-.1 4.9 1.1 5.3.9.2 1.1 0 .5-.5-1.5-1.2-1.2-3.7.5-4.5 1.2-.5 1.2-.7-.2-.7-1-.1-1.8.1-1.9.4zm5.7 2.7c.3.5 1 .6 1.5.3 1.3-.9 1.1-1.2-.6-1.2-.8 0-1.2.4-.9.9zm-2.2 1.9c-.4.7-.3.9.4.5.5-.3 1.3 0 1.5.6.4.9.6 1 .6.1.1-1.7-1.6-2.5-2.5-1.2zm-1182.3 1c-.1.9.7 2.3 1.7 3 1.5 1.2 1.6 1.2.6-.1-.6-.8-1.4-2.2-1.7-3-.5-1.3-.6-1.2-.6.1zm1183.9 2.9c0 .5.5 1 1 1 .6 0 1-.5 1-1 0-.6-.4-1-1-1-.5 0-1 .4-1 1zm-4 .4c0 .2.7.9 1.5 1.6.9.7 1.5.8 1.5.2 0-.5-.7-1.2-1.5-1.6-.8-.3-1.5-.4-1.5-.2zm-1183.9 2.2c0 1.1.3 1.4.6.6.3-.7.2-1.6-.1-1.9-.3-.4-.6.2-.5 1.3zm1191.7-.9c.7.3 1.6.2 1.9-.1.4-.3-.2-.6-1.3-.5-1.1 0-1.4.3-.6.6zm-1.3 2.3c-1 1.6.3 4.5 2.1 4.5 2.1 0 3.5 1.5 2.7 2.8-.3.5-.9.3-1.4-.4-.4-.7-1.1-1.1-1.4-.8-.3.4.1 1.1.8 1.8 1.1.8 1.8.6 3.3-1.1 1-1.2 1.4-1.8.8-1.5-.7.4-1.4.1-1.7-.7s-1.4-1.2-2.4-1c-1.4.4-1.9-.1-2-1.6-.2-1.8.1-1.9 1.3-1 1.1 1 1.4 1 1.4.1 0-.7.5-.9 1.3-.5.6.4.9.3.4-.1-.9-1.1-4.6-1.4-5.2-.5zm-1190.5 3c-.8.5-1.2 1.2-.9 1.5.4.3 1.2-.1 1.9-1 1.4-1.7 1.1-1.9-1-.5zm-4.4 4.8c-.3.5.1.9.9.9s1.2-.4.9-.9c-.3-.4-.7-.8-.9-.8s-.6.4-.9.8zm1201.1 1.2c-1 1.3-1 1.3.4.2s1.8-.9 2.3 1.3c.6 2.4 2.6 3.6 2.6 1.5 0-.6-.4-1-1-1-1.4 0-1.2-2.7.3-3.3.6-.3.2-.4-1.1-.4-1.3.1-2.9.8-3.5 1.7zm6.3.6c0 .5.9 1.5 2 2.1 1.5 1 2.1 1 2.6 0 .4-.6.3-.9-.1-.4-.5.4-1.7 0-2.7-1-1-.9-1.8-1.2-1.8-.7zm-1211 4.5c0 .5.5.7 1 .4.6-.3 1-.8 1-1.1 0-.2-.4-.4-1-.4-.5 0-1 .5-1 1.1zm1211.9.8c.6 1 .7 2.2.3 2.7s0 .3.9-.4c1.4-1.1 1.8-.9 2.4 1.5.5 2.1.8 2.4 1.6 1.2.5-.7.9-1.9.9-2.4 0-.6-.4-.4-.9.3-.6 1-1 .8-1.4-.8-.3-1.2-1-1.9-1.6-1.5-.6.3-1.1-.1-1.1-.9 0-.9-.5-1.6-1-1.6-.7 0-.7.6-.1 1.9zm4.1-1c0 .6.4 1.3 1 1.6s.7-.1.4-.9c-.7-1.8-1.4-2.1-1.4-.7zm-6.5 2.1c-.3.5-.1 1 .4 1 .6 0 1.1-.5 1.1-1 0-.6-.2-1-.4-1-.3 0-.8.4-1.1 1zm-1211 1c-.4.6-1.1.8-1.6.5-.5-.4-.9-.1-.9.4 0 1.6 1.6 1.3 3-.4.7-.8 1-1.5.7-1.5s-.9.5-1.2 1zm-10.5 1.4c0 .2.8 1 1.8 1.7 1.5 1.3 1.6 1.2.3-.4s-2.1-2.1-2.1-1.3z"/><path d="m1338 326c0 .5.7.7 1.5.4.8-.4 1.5-.8 1.5-1s-.7-.4-1.5-.4-1.5.4-1.5 1zm7.7-.3c-1 1-.8 4.1.2 4.8.5.3 1.3 0 1.7-.6.4-.8.3-.9-.4-.5-.8.5-1.2-.1-1.2-1.4s.4-1.9 1.2-1.4c.7.4.8.3.4-.4-.8-1.4-1-1.4-1.9-.5zm-1231 2.4c.7.7 1.5 1 1.8.7s-.2-.9-1.2-1.2c-1.4-.6-1.5-.5-.6.5zm1226-.5c.7.3.9 1.3.6 2.2-.5 1.3-.3 1.4.7.5 1.4-1.3.5-3.3-1.3-3.2-.9 0-.9.2 0 .5zm-1226.6 5c0 1.1.3 1.4.6.6.3-.7.2-1.6-.1-1.9-.3-.4-.6.2-.5 1.3zm1228.9-.5c0 .5.5.7 1 .4.6-.3 1-.8 1-1.1 0-.2-.4-.4-1-.4-.5 0-1 .5-1 1.1zm4-.1c-1.2.7-1 .9.7.7 1.2 0 1.9-.5 1.7-.9-.6-1-.6-1-2.4.2zm1.2 4c0 1.4.2 1.9.5 1.2.2-.6.2-1.8 0-2.5-.3-.6-.5-.1-.5 1.3zm-1235.6.2c.3.5 1 .6 1.5.3 1.3-.9 1.1-1.2-.6-1.2-.8 0-1.2.4-.9.9zm1240.1 1.9c.7.7 1.5 1 1.8.7s-.2-.9-1.2-1.2c-1.4-.6-1.5-.5-.6.5zm-1245.1 1.7c-.3.5.1.9.9.9s1.2-.4.9-.9c-.3-.4-.7-.8-.9-.8s-.6.4-.9.8zm-4 6c-.2.4-.1 1.4.4 2.2.7 1.1.9.9.7-.8-.1-2.4-.3-2.6-1.1-1.4zm1251.1 1.3c.7 2.6 1.9 3.2 1.9.9 0-1.1-.6-2.2-1.2-2.4-.7-.3-1 .3-.7 1.5zm3.8.9c-.3.6.1.7.9.4 1.8-.7 2.1-1.4.7-1.4-.6 0-1.3.4-1.6 1zm-1269.5 6.4c0 .2.8 1 1.8 1.7 1.5 1.3 1.6 1.2.3-.4s-2.1-2.1-2.1-1.3zm1276 3.7c0 .5.5.7 1 .4.6-.3 1-.8 1-1.1 0-.2-.4-.4-1-.4-.5 0-1 .5-1 1.1zm.6 3.8c-.3.5.1 1.4.9 2.1s1.3 1.6 1 1.9c-.2.4.2.8 1 .8 1 0 1.2-.4.5-1.2-.5-.7-.6-1.5-.2-1.9s0-.6-.8-.4c-.8.1-1.4-.3-1.2-1 .2-1.4-.4-1.6-1.2-.3zm6 1.4c.3 1 .9 1.5 1.2 1.2s0-1.1-.7-1.8c-1-.9-1.1-.8-.5.6zm3.9 5.7c-.3.5-.3 1 .1 1s-.1 1-1.2 2.2c-1.9 2.3-1.9 2.3.2.5 1.1-.9 2.1-2.4 2.1-3.2 0-1.8-.3-1.9-1.2-.5zm-1288.9.8c-.3.5.1.9.9.9s1.5-.4 1.5-.9c0-.4-.4-.8-.9-.8-.6 0-1.2.4-1.5.8zm1283.4-.2c0 .1.6.7 1.4 1.3 1 .9 1.5.8 1.9-.2.3-.8-.3-1.3-1.4-1.3s-1.9.1-1.9.2zm-1291 2.3c0 .6.4 1.3 1 1.6s.7-.1.4-.9c-.7-1.8-1.4-2.1-1.4-.7zm10.9.8c-1.3 1.6-1.2 1.7.4.4s2.1-2.1 1.3-2.1c-.2 0-1 .8-1.7 1.7zm-6.3 1.6c.3 1 .9 1.5 1.2 1.2s0-1.1-.7-1.8c-1-.9-1.1-.8-.5.6zm1287.4-.4c0 .6.4 1.3 1 1.6s.7-.1.4-.9c-.7-1.8-1.4-2.1-1.4-.7zm-1291.4 2.3c.3.5 1 .6 1.5.3 1.3-.9 1.1-1.2-.6-1.2-.8 0-1.2.4-.9.9zm1311.7.3c0 .8.4 1.2.9.9s.6-1 .3-1.5c-.9-1.3-1.2-1.1-1.2.6zm-1309.9 3.7c-.4.5-.3 1.2 0 1.5.3.4.6.1.6-.5s.7-.9 1.5-.6c.8.4 1.5.2 1.5-.3 0-1.2-2.9-1.3-3.6-.1zm1297.6-.2c0 .5.5 1 1.1 1 .5 0 .7-.5.4-1-.3-.6-.8-1-1.1-1-.2 0-.4.4-.4 1zm5.5 2.1c-.4.6-.5 1.2-.2 1.5.2.3.7-.2 1-1.1.7-1.7.1-2-.8-.4zm-1307 1c-.4.6-.5 1.2-.2 1.5.2.3.7-.2 1-1.1.7-1.7.1-2-.8-.4zm-10 .9c.3.5.8 1 1.1 1 .2 0 .4-.5.4-1 0-.6-.5-1-1.1-1-.5 0-.7.4-.4 1zm13.8.7c0 .9.4 1 1.4.2.7-.6 1.3-1.2 1.3-1.4 0-.1-.6-.2-1.3-.2-.8 0-1.4.6-1.4 1.4zm1300.8-.1c0 1.1.3 1.4.6.6.3-.7.2-1.6-.1-1.9-.3-.4-.6.2-.5 1.3zm-1310.6 2.5c-.4.6-.5 1.2-.2 1.5.2.3.7-.2 1-1.1.7-1.7.1-2-.8-.4zm6.8.6c1.2 1.3 1.4 2.3.7 2.6-.6.4-.6.5.1.3.7-.1 1.3-1 1.5-2 .1-1 0-1.5-.3-1.2-.4.3-1.3 0-2.2-.6-1.1-.9-1-.6.2.9zm1304.7.3c0 .6.4.9.9.6.5-.4 1.2-.1 1.4.4.3.6.4.5.3-.2-.3-1.5-2.6-2.3-2.6-.8zm-1307.5.9c-.3.5-.2 1.2.3 1.5s.9-.1.9-.9c0-1.7-.3-1.9-1.2-.6zm1.5 5c0 .6.4 1.3 1 1.6s.7-.1.4-.9c-.7-1.8-1.4-2.1-1.4-.7zm-10 4.1c0 .5.5 1 1.1 1 .5 0 .7-.5.4-1-.3-.6-.8-1-1.1-1-.2 0-.4.4-.4 1zm1324.8 11.7c.7.3 1.6.2 1.9-.1.4-.3-.2-.6-1.3-.5-1.1 0-1.4.3-.6.6zm-1325.2 3c.3 1.2-.9 1.7-2.9 1.4-.5-.1-.6.3-.3.8.4.5-.2 1.5-1.1 2.1-1.7 1.1-1.7 1.1 0 .6 1.2-.4 2 .1 2.6 1.6.7 1.8.9 1.9 1.4.5.4-1 .3-1.7-.2-1.7-.4 0-.8-.7-.8-1.5s.7-1.4 1.5-1.3c.8.2 1.6-.5 1.7-1.5.2-.9 0-1.5-.5-1.2s-1 .2-1.3-.2c-.2-.5-.2-.2-.1.4zm1349 42.6c.3 1 .9 1.5 1.2 1.2s0-1.1-.7-1.8c-1-.9-1.1-.8-.5.6zm3.4 8.7c0 .5.5 1 1.1 1 .5 0 .7-.5.4-1-.3-.6-.8-1-1.1-1-.2 0-.4.4-.4 1zm7 8c-.9.6-1 1-.3 1 .6 0 1.5-.5 1.8-1 .8-1.2.4-1.2-1.5 0zm1 12.1c0 .5.5.7 1 .4.6-.3 1-.8 1-1.1 0-.2-.4-.4-1-.4-.5 0-1 .5-1 1.1zm-1397.5 11.8c-.3.5-.2 1.2.3 1.5s.9-.1.9-.9c0-1.7-.3-1.9-1.2-.6zm1426.1 349.9c-.3.5.1.9.9.9s1.2-.4.9-.9c-.3-.4-.7-.8-.9-.8s-.6.4-.9.8zm-1440.3 21.7c0 .8.4 1.2.9.9s.6-1 .3-1.5c-.9-1.3-1.2-1.1-1.2.6zm1420.2 64.5c.3.5.8 1 1.1 1 .2 0 .4-.5.4-1 0-.6-.5-1-1.1-1-.5 0-.7.4-.4 1zm-14 14.1c-.3.4.2.6 1 .5 2.1-.3 2.8-1.3 1-1.3-.9 0-1.8.4-2 .8zm-1381.9 35.2c.3 1 .9 1.5 1.2 1.2s0-1.1-.7-1.8c-1-.9-1.1-.8-.5.6zm1333.9 84.7c.3.5.8 1 1.1 1 .2 0 .4-.5.4-1 0-.6-.5-1-1.1-1-.5 0-.7.4-.4 1zm-3.5 6c-.9.6-1 1-.3 1 .6 0 1.5-.5 1.8-1 .8-1.2.4-1.2-1.5 0zm-2.5 3c-.3.5-.1 1 .4 1 .6 0 1.1-.5 1.1-1 0-.6-.2-1-.4-1-.3 0-.8.4-1.1 1zm3.5.4c0 .8.4 1.7.8 2 .4.2.8-.4.8-1.5 0-1-.4-1.9-.8-1.9s-.8.6-.8 1.4zm-1280.4.4c-.2.4.4.8 1.4.8s1.6-.4 1.4-.8c-.3-.4-.9-.8-1.4-.8s-1.1.4-1.4.8zm1273.9 3.8c-1.2 1.9-1.2 2.4 0 3.4 1.7 1.4 2.1 3.5.5 2.5-.5-.3-1.5.5-2.2 1.9-.9 2-1.4 2.3-2.5 1.5-.9-.9-1.3-.8-1.3 0 0 .6.5 1.1 1.1 1.1.5 0 .7.6.4 1.2-.4.7.2.3 1.3-.9s2.3-1.9 2.6-1.5c.4.3.4-.2 0-1.2-.5-1.3-.4-1.7.4-1.2 1.9 1.2 2.4-1.5.6-3.5-1-1.1-1.2-1.9-.6-1.9.7 0 1.2-.6 1.2-1.3s.9-1.3 2-1.3 2 .6 2 1.3c0 1.6 1.6 1.7 2.6.1.4-.6.3-.8-.4-.4-.5.3-1.2.1-1.4-.6-.7-2.1-4.7-1.6-6.3.8zm-1269.7 2.6c1 1.3 1 1.7 0 2-.8.3-.7.6.3 1 3 1.2 3.7-.7 1-2.7-1.7-1.3-2.2-1.4-1.3-.3z"/><path d="m1367 1082c0 .5.5 1 1 1 .6 0 1-.5 1-1 0-.6-.4-1-1-1-.5 0-1 .4-1 1zm4 1c-.8.5-1.2 1.2-.9 1.5.4.3 1.2-.1 1.9-1 1.4-1.7 1.1-1.9-1-.5zm-9.4 1.7c-.6 1.4-.5 1.5.5.6.7-.7 1-1.5.7-1.8s-.9.2-1.2 1.2zm-1262.2 1.8c-.4.8-1 1.2-1.5.9s-.9 0-.9.5c0 1.8 1.9 1.2 3-.9.6-1.1.8-2 .5-2s-.8.7-1.1 1.5zm1268.3-.1c-.3.8-.2 1.8.3 2.1 1.3.8 2-.9 1.1-2.4-.6-1-1-.9-1.4.3zm-1268.5 3.5c-1.1.6-1 1 .4 1.5.9.3 1.9.4 2.2.1s0-.5-.7-.5-.9-.5-.6-1c.7-1.2.4-1.2-1.3-.1zm1266.3.2c-.4.6-.4 1.3-.1 1.6.3.4.6.1.6-.6s.5-.9 1.2-.5.8.3.4-.4c-.9-1.5-1.3-1.5-2.1-.1zm-2.5 2.5c0 .9-.5 1.2-1.2.8s-.8-.3-.4.4c.9 1.6 3.6.3 2.9-1.4-.7-1.8-1.3-1.8-1.3.2zm-1264 1.3c.8.5 1.8.7 2.4.4.5-.4.7.1.3 1.1-.4 1.1-.3 1.5.4 1.1 1.6-1.1.5-2.8-2.2-3.2-1.8-.2-2-.1-.9.6zm6 .7c0 .6.7 1.9 1.6 3 1.4 1.8 1.4 1.8.3-.6-1.4-3.1-1.9-3.6-1.9-2.4zm1250.7.7c-.3.8-.2 2 .3 2.6.5.9.8.4.8-1.3 0-2.9-.3-3.2-1.1-1.3zm2.3.7c0 .5.9.8 2 .7 2.1-.1 1.8-1-.5-1.3-.8-.1-1.5.2-1.5.6zm-1255 2.1c0 .5.5.7 1 .4.6-.3 1-.8 1-1.1 0-.2-.4-.4-1-.4-.5 0-1 .5-1 1.1zm1250-.2c0 .5.5 1.3 1 1.6.6.3 1 .2 1-.4 0-.5-.4-1.3-1-1.6-.5-.3-1-.2-1 .4zm-1248 2.1c0 .5.5 1 1.1 1 .5 0 .7-.5.4-1-.3-.6-.8-1-1.1-1-.2 0-.4.4-.4 1zm1253.6.2c.3.5 1 .6 1.5.3 1.3-.9 1.1-1.2-.6-1.2-.8 0-1.2.4-.9.9zm-7 1.5c-.6 1.4-.5 1.5.5.6.7-.7 1-1.5.7-1.8s-.9.2-1.2 1.2zm-1240.8 1c.6.2.9 1 .6 1.5-.4.7-.2.8.5.4 1.3-.9.5-2.6-1.2-2.5-.9 0-.8.2.1.6zm2.5 3.8c0 .8.4 1.2.9.9s.6-1 .3-1.5c-.9-1.3-1.2-1.1-1.2.6zm1227.2 13.5c-.3.6.1.7.9.4 1.8-.7 2.1-1.4.7-1.4-.6 0-1.3.4-1.6 1zm-1217 3.1c-.4.6-.5 1.2-.2 1.5.2.3.7-.2 1-1.1.7-1.7.1-2-.8-.4zm9 12.9c-.3.6.1.7.9.4 1.8-.7 2.1-1.4.7-1.4-.6 0-1.3.4-1.6 1zm5.2 2.7c-1 .9-.9 2.3.1 2.3.5 0 .9-.7.9-1.5 0-1.7-.1-1.8-1-.8zm5.1 7c.7.3 1.6.2 1.9-.1.4-.3-.2-.6-1.3-.5-1.1 0-1.4.3-.6.6zm-.9 3c-1.3 1.6-1.2 1.7.4.4.9-.7 1.7-1.5 1.7-1.7 0-.8-.8-.3-2.1 1.3zm-.4 3.2c-.3.5-.2 1.2.3 1.5s.9-.1.9-.9c0-1.7-.3-1.9-1.2-.6zm1170.9 2.2c-.3.6-.2 1.5.3 2s.9.1.9-1.1c0-2.3-.2-2.4-1.2-.9zm3.4-.4c.7.3 1.6.2 1.9-.1.4-.3-.2-.6-1.3-.5-1.1 0-1.4.3-.6.6zm-1170.8.7c0 .2.8 1 1.8 1.7 1.5 1.3 1.6 1.2.3-.4s-2.1-2.1-2.1-1.3zm6.5.7c-.4.6-.5 1.2-.2 1.5.2.3.7-.2 1-1.1.7-1.7.1-2-.8-.4zm-12.5 1.1c0 .4.4.8.9.8.6 0 1.2-.4 1.5-.8.3-.5-.1-.9-.9-.9s-1.5.4-1.5.9zm13.4 3.6c.4.3 1.4.7 2.2.8.9.1 1.3 0 1-.4-.4-.3-1.4-.7-2.2-.8-.9-.1-1.3 0-1 .4zm-5.1 1.7c0 .8.4 1.2.9.9s.6-1 .3-1.5c-.9-1.3-1.2-1.1-1.2.6zm1162.2-.4c-.4.6-.5 1.2-.2 1.5.2.3.7-.2 1-1.1.7-1.7.1-2-.8-.4zm-1153.6 1.6c-1.3 1.6-1.2 1.7.4.4.9-.7 1.7-1.5 1.7-1.7 0-.8-.8-.3-2.1 1.3zm1149.4.8c0 .7.6 1.1 1.4.8.7-.3 1.3-.6 1.3-.8s-.6-.5-1.3-.8c-.8-.3-1.4.1-1.4.8zm-5.3 5.1c0 .8-.5 1.2-1 .9-.6-.3-1.3.1-1.6.9-.3.9-1 1.3-1.5 1s-.9 0-.9.5c0 1.6 2 1.3 2.6-.3.3-.8 1.4-1.3 2.4-1.1 1.4.3 1.7-.1 1.3-1.2-.5-1.2-.3-1.4.7-.8.9.5 1.1.4.6-.3-1-1.7-2.6-1.5-2.6.4zm-1147 .8c0 .2.7.7 1.6 1 .8.3 1.2.2.9-.4-.6-1-2.5-1.4-2.5-.6zm4 .7c0 .5.5.7 1 .4.6-.3 1-.8 1-1.1 0-.2-.4-.4-1-.4-.5 0-1 .5-1 1.1zm8.6 2.1c.3.5 1 .6 1.5.3 1.3-.9 1.1-1.2-.6-1.2-.8 0-1.2.4-.9.9zm1125.9 2.2c-1.8 1.3-1.3 3.6.8 3.6.7 0 .6-.4-.3-1-1.3-.9-1.3-1.1 0-2 1.1-.7 1.7-.5 2.2.8.6 1.6.7 1.6.7 0 .1-2.4-1.3-3-3.4-1.4zm6-.5c-.3.5-.2 1.2.3 1.5s.9-.1.9-.9c0-1.7-.3-1.9-1.2-.6zm-1126.5 4c0 .6.4 1.3 1 1.6s.7-.1.4-.9c-.7-1.8-1.4-2.1-1.4-.7zm1118 2.1c0 .5.5 1 1 1 .6 0 1-.5 1-1 0-.6-.4-1-1-1-.5 0-1 .4-1 1zm-5.6 3.2c-2.3 2.7-2.4 2.9-.3 1 1.4-1.2 2.9-1.9 3.4-1.5.4.5.5.3.2-.4-.4-.6-.1-1.4.5-1.6.7-.3.8-.6.2-.6-.5-.1-2.3 1.4-4 3.1zm-1108.5-.9c.6.8.7 1.8.3 2.3s-.3.6.2.2 1.6-.2 2.5.4c.9.7.5 0-.8-1.5-2.5-2.7-4.3-3.9-2.2-1.4zm2.7 5.5c-.2.4-.1 1.4.4 2.2.7 1.1.9.9.7-.8-.1-2.4-.3-2.6-1.1-1.4zm1102.4.2c-1.2.7-1 .9.8.7 1.2 0 2.2-.5 2.2-.9 0-1.1-1.2-1-3 .2zm-6.4 7.8c-.3.5.1.9.9.9s1.2-.4.9-.9c-.3-.4-.7-.8-.9-.8s-.6.4-.9.8zm-1083 2.7c-.6 1.7.2 4.5 1.4 4.5 1.5 0 1.8-2.6.5-4.3-1.1-1.5-1.3-1.6-1.9-.2zm1.9 1.5c.3.5.1 1-.4 1-.6 0-1.1-.5-1.1-1 0-.6.2-1 .4-1 .3 0 .8.4 1.1 1zm-11.2.5c0 .8.4 1.2.9.9s.6-1 .3-1.5c-.9-1.3-1.2-1.1-1.2.6zm5.2 2.1c-1.9 1.4-1.9 1.4.4 1.2 1.3-.2 2.6.2 2.8.9.3.7-.4 1-1.9.7-2.1-.4-2.1-.4-.3.5 2.7 1.2 4-.3 2.3-2.7-1.2-1.8-1.6-1.8-3.3-.6zm1081 1.3c-.3.5-.2 1.2.3 1.5s.9-.1.9-.9c0-1.7-.3-1.9-1.2-.6zm-1072.5 3.8c1.4.7 1.3 2.4-.2 2-.6-.1-1.3.7-1.5 1.8-.3 1.8-.2 1.8.5.2.4-1 1.2-1.8 1.7-1.8 1.5.1 1.2-2.2-.3-2.5-.7-.1-.8 0-.2.3zm4.5 2.3c.5 1.6.3 1.9-1.2 1.4-1.4-.5-1.5-.4-.3.4.8.6 1.7.9 2.1.6 1-.6.7-4.4-.4-4.4-.5 0-.6.9-.2 2zm1060-1.1c-.3.5-.2 1.2.3 1.5s.9-.1.9-.9c0-1.7-.3-1.9-1.2-.6zm-2.5 3.1c0 .5.5 1 1 1 .6 0 1-.5 1-1 0-.6-.4-1-1-1-.5 0-1 .4-1 1zm-1062 1.4c0 .2.9.6 2 .9s1.8.1 1.4-.4c-.5-.9-3.4-1.3-3.4-.5zm5.5.6c-.6.9-.4 1.1.5.5 1-.6 1.2-.4.6 1.1-.4 1-.4 1.5 0 1.1s1.2-.2 1.9.3c.8.7 1.2.5 1.2-.5 0-.8-.3-1.3-.5-1-.3.3-1-.3-1.7-1.2-.9-1.3-1.4-1.3-2-.3zm1053.9.2c-.5.7-.3.8.6.3 1-.6 1.2-.4.7.9-.4 1-.7 2-.7 2.2 0 .3-.6.2-1.2-.2-.7-.4-.9-.3-.5.1 1.4 1.6 3.6 1.4 3-.3-.5-1.1-.3-1.3.6-.7 1 .6 1.1.3.2-1.4-1.3-2.4-1.7-2.5-2.7-.9zm-1047.7 3.1c-.3.8.1 1.4.8 1.4s1.1-.6.8-1.4c-.3-.7-.6-1.3-.8-1.3s-.5.6-.8 1.3zm4.3 3.1c0 1.1-.5 1.5-1.2 1-.7-.4-1-.3-.5.1.4.5 1.6.9 2.7 1 1.6.1 1.8-.1.8-1.4-.7-.9-1.4-1.8-1.5-2-.2-.2-.3.3-.3 1.3zm1036.5.7c-.4.6-.5 1.2-.2 1.5.2.3.7-.2 1-1.1.7-1.7.1-2-.8-.4zm1.5 2.1c-1 2.1-1 2.1.3.6.8-1 1.8-1.4 2.2-1 .5.4.5.1.1-.6-1-1.7-1.4-1.5-2.6 1zm-1034.4.6c-.3.5.1.9.9.9s1.2-.4.9-.9c-.3-.4-.7-.8-.9-.8s-.6.4-.9.8zm1016.4 15.2c-.9.6-1 1-.3 1 .6 0 1.5-.5 1.8-1 .8-1.2.4-1.2-1.5 0zm-1001.7 1.5c0 .8.4 1.2.9.9.4-.3.8-.9.8-1.5 0-.5-.4-.9-.8-.9-.5 0-.9.7-.9 1.5zm1003.7 1.5c0 .5.5 1 1.1 1 .5 0 .7-.5.4-1-.3-.6-.8-1-1.1-1-.2 0-.4.4-.4 1zm-1001.7 1.4c-.3.6-.2.8.2.3.5-.4 1.8.1 2.9 1 1.5 1.4 1.8 1.4.8.2-.6-.9-1-1.8-.7-2.1.3-.2-.2-.5-1-.5-.9 0-1.9.5-2.2 1.1zm8.2 4.6c-.3.5-.1 1 .4 1 .6 0 1.1-.5 1.1-1 0-.6-.2-1-.4-1-.3 0-.8.4-1.1 1zm983.1-.1c-.3.5 0 1.1.7 1.4.8.3 1.4-.1 1.4-.9 0-1.6-1.3-1.9-2.1-.5zm-980.7 1.2c-.1.2-.3 1.4-.4 2.6-.2 1.8.1 2 1.4 1.4.9-.5 2.3-.6 3.1-.3.8.2 1.3.3 1 .1s-1.5-1.3-2.7-2.3c-1.3-1.1-2.4-1.7-2.4-1.5zm1.6 1.9c.3.5.1 1-.4 1-.6 0-1.1-.5-1.1-1 0-.6.2-1 .4-1 .3 0 .8.4 1.1 1zm976.1-.4c-.8 2.1-.8 3.4.2 3.4.4 0 .8-1.1.8-2.5.2-2.9-.1-3.2-1-.9zm-4.4 3c-.7.8-.8 1.4-.3 1.4 1 0 2.5-1.9 2-2.5-.2-.1-1 .3-1.7 1.1zm-968.2 1.4c0 .5.5 1 1.1 1 .5 0 .7-.5.4-1-.3-.6-.8-1-1.1-1-.2 0-.4.4-.4 1zm964.3.7c.4.3-.1 1.2-1.1 2-1.5 1.3-1.5 1.3.4.4 1.2-.6 2.4-.7 2.8-.3.4.3.4-.1 0-1.1-.3-.9-1.1-1.7-1.7-1.7s-.7.3-.4.7zm4.6 1c-1.3 1.6-1.2 1.7.3.5.9-.8 2.3-1 2.9-.6.8.4.9.3.5-.4-1-1.7-2.1-1.5-3.7.5zm-937.4 89.3c-.3.6.1.7.9.4 1.8-.7 2.1-1.4.7-1.4-.6 0-1.3.4-1.6 1zm20.5 9.9c0 .6.4 1.3 1 1.6s.7-.1.4-.9c-.7-1.8-1.4-2.1-1.4-.7zm26.5 15.2c-.4.6-.5 1.2-.2 1.5.2.3.7-.2 1-1.1.7-1.7.1-2-.8-.4zm33.5 14.3c0 .2.7.7 1.6 1 .8.3 1.2.2.9-.4-.6-1-2.5-1.4-2.5-.6zm5 .6c-.9.6-1 1-.3 1 .6 0 1.5-.5 1.8-1 .8-1.2.4-1.2-1.5 0zm720.6 1.8c-.3.5.1.9.9.9s1.2-.4.9-.9c-.3-.4-.7-.8-.9-.8s-.6.4-.9.8zm-715.1 1.2c-.3.6.1.7.9.4 1.8-.7 2.1-1.4.7-1.4-.6 0-1.3.4-1.6 1zm721.4.7c-1.3 1.6-1.2 1.7.4.4s2.1-2.1 1.3-2.1c-.2 0-1 .8-1.7 1.7zm-719 1c-1.2 1.6-1.2 1.7.2.6.9-.7 2-.9 2.4-.5.5.4.5.1.1-.6-.9-1.6-1.1-1.5-2.7.5zm9.4-.2c-.3.9-.3 1.8-.1 2.1.3.3.8-.4 1.1-1.6.6-2.3-.1-2.7-1-.5zm701.6-.3c1 1.3 1.1 2.1.2 3.1-.8 1-.7 1.4.4 1.4.7 0 1.3-.5 1.2-1.1s.3-1 .9-.9 1.1-.4 1.1-1.2-.4-1.2-.9-.9-1.7 0-2.6-.8c-1.5-1.2-1.6-1.1-.3.4zm-721.6 1.3c0 .8.4 1.2.9.9s.6-1 .3-1.5c-.9-1.3-1.2-1.1-1.2.6zm7.7.4c0 .6.4 1.3 1 1.6s.7-.1.4-.9c-.7-1.8-1.4-2.1-1.4-.7zm703.5.1c.3.5.8 1 1.1 1 .2 0 .4-.5.4-1 0-.6-.5-1-1.1-1-.5 0-.7.4-.4 1zm-693.8 2.1c.7.7 1.5 1 1.8.7s-.2-.9-1.2-1.2c-1.4-.6-1.5-.5-.6.5zm-5.6 1.2c-.8 1-.7 1.4.2 1.4.8 0 1.4-.6 1.4-1.4 0-.7-.1-1.3-.2-1.3-.2 0-.8.6-1.4 1.3zm13.1.3c1 1 2 1.6 2.2 1.3.3-.3-.5-1.1-1.7-1.8-2.1-1.3-2.1-1.2-.5.5zm11.7 1.1c-1.3 1.7-1.3 1.7.6.3 1.1-.8 2.2-1.6 2.4-1.7.2-.2 0-.3-.6-.3s-1.7.8-2.4 1.7zm662.1-.7c-.9.6-1 1-.3 1 .6 0 1.5-.5 1.8-1 .8-1.2.4-1.2-1.5 0zm6.7.1c.7.7 1.5 1 1.8.7s-.2-.9-1.2-1.2c-1.4-.6-1.5-.5-.6.5zm7.8-.1c-.3.6.1.7.9.4 1.8-.7 2.1-1.4.7-1.4-.6 0-1.3.4-1.6 1zm-683 1.1c-.4.6-.5 1.2-.2 1.5.2.3.7-.2 1-1.1.7-1.7.1-2-.8-.4zm-12.5 1.3c.7.7 1.3.7 2 0 .6-.6.3-1-1-1s-1.6.4-1 1zm4-1c0 .2.7.7 1.6 1 .8.3 1.2.2.9-.4-.6-1-2.5-1.4-2.5-.6z"/></svg>